<?xml version="1.0" encoding="UTF-8"?>
<svg id="Layer_2" data-name="Layer 2" xmlns="http://www.w3.org/2000/svg" viewBox="0 0 733.45 435.19">
  <defs>
    <style>
      .cls-1 {
        fill: #fa6a25;
      }
    </style>
  </defs>
  <g id="Layer_1-2" data-name="Layer 1">
    <g>
      <path d="M267.46,332.24c1.93-1.6,2.13-3.68,2.45-5.75,.17-1.06,.65-2.06,.96-3.11,.3-1.03,.58-2.08,.83-3.13,.15-.61,.01-1.4,.35-1.85,2.04-2.68,2.74-5.92,3.44-9.03,.91-4.06,2.82-7.71,3.99-11.65,1.13-3.81,2.54-7.53,3.73-11.32,1.03-3.28,1.89-6.61,2.89-9.89,.41-1.36,.95-2.69,1.47-4.02,.29-.75,.82-1.45,.96-2.23,.4-2.25,.8-4.46,2.62-6.11,.24-.22,.44-.66,.41-.98-.26-3.63,2.42-6.59,2.28-10.23-.03-.88,.78-1.77,1.14-2.68,.59-1.49,1.1-3.02,1.7-4.5,1.45-3.58,1.75-7.57,3.88-10.92,.24-.38,.45-.8,.56-1.23,.82-3.24,1.62-6.48,2.42-9.73,.09-.35,.08-.77,.27-1.05,2.02-2.99,2.25-6.64,3.67-9.85,.36-.82,.75-1.7,.81-2.58,.14-1.95,.55-3.75,1.89-5.26,.17-.2,.29-.47,.36-.73,.92-3.48,1.83-6.97,2.74-10.45,.21-.78,.2-1.78,.7-2.3,1.51-1.57,1.38-3.65,2.1-5.43,1.45-3.6,1.83-7.52,3.78-11.01,1.29-2.3,1.54-5.17,2.38-7.75,.67-2.05,1.54-4.04,2.32-6.05,.13-.34,.38-.64,.46-.98,.94-3.66,1.85-7.32,2.79-10.98,.16-.61,.23-1.29,.56-1.81,2.41-3.75,2.86-8.15,4.12-12.27,.57-1.85,.93-2.37,2.95-2.55,.9-.08,1.81-.06,2.72-.06,17.06,0,34.11,0,51.17,0,1.36,0,2.72-.12,4.08-.1,1.78,.02,2.58,.78,2.36,2.51-.13,1.03-.68,2.02-1.13,2.98-.26,.56-.85,1.01-1.01,1.58-.87,3.13-1.8,6.26-2.4,9.45-.29,1.53-.54,2.93-1.44,4.28-.72,1.08-.97,2.48-1.38,3.76-.16,.51-.05,1.15-.31,1.58-1.4,2.32-1.97,4.84-2.14,7.51-.03,.43-.21,.94-.5,1.24-1.59,1.58-1.63,3.75-2.38,5.66-1.37,3.51-1.68,7.3-3.61,10.73-1.59,2.81-1.82,6.38-2.74,9.58-.37,1.27-1.02,2.45-1.47,3.7-.52,1.43-.98,2.88-1.44,4.33-.44,1.37-.88,2.73-1.25,4.11-.38,1.39-.85,2.78-.96,4.19-.11,1.48,.63,2.11,2.12,2.27,.45,.05,.91,0,1.36,0,26.58,0,53.16,0,79.74,0,.82,0,1.68,.14,2.44-.07,.72-.2,1.54-.64,1.96-1.23,.73-1.02,1.46-2.17,1.72-3.37,.79-3.61,2.62-6.92,2.95-10.67,.09-1.01,.86-1.95,1.25-2.95,.52-1.33,1.01-2.68,1.45-4.03,.31-.94,.5-1.92,.76-2.87,.31-1.13,.86-2.26,.9-3.4,.07-1.91,.58-3.47,1.94-4.89,.62-.65,.76-1.79,1.04-2.73,.46-1.55,.86-3.12,1.3-4.67,.29-1.04,.67-2.07,.88-3.13,.32-1.61,.64-3.19,1.83-4.45,.3-.31,.48-.78,.59-1.21,.74-2.97,1.46-5.96,2.18-8.94,.11-.44,.09-.96,.33-1.3,1.89-2.75,2.63-5.92,3.47-9.06,.42-1.57,.79-3.16,1.27-4.71,.37-1.2,.72-2.45,1.35-3.52,.86-1.48,2.15-2.2,4.04-2.19,17.15,.08,34.29,.07,51.44,.07,1.36,0,2.71-.15,4.07-.21,1.63-.08,2.55,.48,2.6,2.06,.09,2.58,.5,5.23-1.72,7.41-.73,.72-.81,2.12-1.14,3.23-.41,1.37-.87,2.74-1.13,4.14-.71,3.95-2.74,7.41-3.97,11.16-1.22,3.69-2.42,7.38-3.63,11.07-.2,.6-.39,1.21-.58,1.81-1.36,4.3-2.57,8.65-4.11,12.89-1.36,3.74-2.4,7.52-2.99,11.45-.14,.94-.66,1.84-1.08,2.71-.23,.48-.78,.83-.94,1.31-1.09,3.33-2.24,6.65-3.1,10.04-.42,1.67-.56,3.37-1.71,4.78-.44,.54-.7,1.27-.88,1.96-.78,2.87-1.5,5.76-2.26,8.65-.11,.44-.28,.86-.44,1.29-1.26,3.38-2.56,6.75-3.78,10.15-.3,.84-.35,1.77-.56,2.64-.26,1.05-.37,2.22-.93,3.09-1,1.56-1.79,3.1-1.79,5.01,0,.56-.47,1.13-.76,1.68-.49,.93-1.01,1.83-1.52,2.75-.13,.24-.19,.66-.36,.7-2.31,.63-2.39,2.92-3.42,4.5-1.23,1.87-2.54,3.69-3.81,5.54-.51,.75-.96,1.54-1.52,2.26-.64,.82-1.36,1.59-2.06,2.37-.18,.2-.46,.32-.61,.53-1.1,1.53-2.32,2.98-3.22,4.62-1.75,3.16-4.17,5.79-6.37,8.6-1.78,2.27-3.42,4.66-5.25,6.89-2.21,2.7-4.56,5.28-6.82,7.94-.76,.9-1.36,1.93-2.13,2.81-.7,.8-1.52,1.49-2.29,2.22-.38,.37-.94,.67-1.11,1.12-.76,2.05-2.33,3.37-3.87,4.8-1.79,1.66-3.37,3.54-5.02,5.34-2.5,2.73-4.92,5.53-7.49,8.2-2.42,2.52-4.98,4.92-7.49,7.36-.32,.32-.78,.54-1,.91-1.78,2.9-4.51,3.21-7.58,3.1-4.35-.15-8.71-.02-13.06-.02-.54,0-1.1,.05-1.63-.04-1.43-.24-1.87-.9-1.48-2.28,.27-.96,.69-1.87,.97-2.83,.55-1.91,.91-3.88,1.59-5.74,1.32-3.6,2.81-7.13,4.25-10.69,.2-.5,.55-.96,.68-1.47,.89-3.49,1.73-7,2.59-10.5,.11-.44,.16-.94,.4-1.29,2.8-4.06,3.14-8.92,4.41-13.47,.15-.52,.37-1.02,.55-1.53,1.44-4.18,2.87-8.36,4.3-12.55,.12-.34,.11-.74,.28-1.05,2.36-4.36,3.34-9.15,4.42-13.91,.11-.5,.54-.92,.81-1.4,.8-1.44,.53-2.43-.99-3-.82-.31-1.77-.41-2.66-.41-26.76-.02-53.53,0-80.29,0-.72,0-1.45,.07-2.17,.13-1.53,.12-2.43,.84-2.77,2.45-.57,2.64-1.35,5.24-2.05,7.85-.07,.26-.08,.58-.24,.77-1.73,2.1-2.19,4.65-2.89,7.19-.62,2.27-1.42,4.45-1.53,6.85-.04,.82-.44,1.86-1.04,2.38-1.22,1.08-1.63,2.37-1.66,3.85-.04,1.58-.41,2.99-1.3,4.35-.57,.88-.67,2.05-1.05,3.07-.54,1.43-1.14,2.83-1.73,4.24-.28,.67-.67,1.3-.84,1.99-.74,2.99-1.42,5.99-2.12,8.99-.1,.44-.13,.93-.36,1.3-1.34,2.18-2.42,4.44-2.38,7.08-2.75,3.04-1.73,7.55-4.19,10.73-.4,.52-.39,1.38-.51,2.09-.09,.53-.05,1.09-.13,1.62-.58,3.84-2.3,5.19-6.15,5.18-18.05-.03-36.11,0-54.16-.02-1.49,0-3.09,.25-4.55-1.39Z"/>
      <path d="M314.77,132.79c-.73,1.82-1.9,2.87-3.17,3.91-3.63,2.97-7.18,6.06-10.77,9.08-2.36,1.98-4.78,3.87-7.11,5.88-2.38,2.07-4.71,4.13-7.46,5.78-2.12,1.28-3.76,3.34-5.66,5-2.7,2.36-5.45,4.67-8.17,7.01-1.72,1.47-3.51,2.87-5.11,4.46-2.84,2.81-6.25,4.9-9.2,7.51-2.18,1.93-4.61,3.56-6.52,5.91-1.89,2.33-4.73,3.89-7.15,5.78-.85,.67-1.74,1.29-2.57,1.98-4.5,3.78-8.99,7.57-13.46,11.39-1.03,.88-1.95,1.89-2.92,2.84-.45,.45-.8,1.06-1.33,1.34-5,2.67-8.52,7.19-13.08,10.42-2.48,1.76-4.55,4.1-6.84,6.13-.74,.65-1.57,1.2-2.39,1.75-2.07,1.41-2.64,3.33-1.63,5.6,.87,1.94,1,4.28,3.04,5.58,.12,2.58,2.32,4.22,3,6.55,.08,.26,.12,.57,.28,.76,2.48,2.68,3.09,6.27,4.59,9.42,.23,.48,.61,.88,.87,1.35,.52,.92,1.01,1.85,1.49,2.79,.45,.88,.86,1.77,1.31,2.65,.12,.24,.35,.42,.47,.66,1.11,2.24,2.21,4.48,3.29,6.73,1.64,3.41,2.79,7.18,5.01,10.15,2.29,3.07,3.37,6.51,4.91,9.83,1.05,2.26,2.47,4.36,3.59,6.59,1.29,2.56,2.39,5.2,3.65,7.77,1.15,2.32,2.46,4.55,3.61,6.87,1.12,2.27,2.08,4.61,3.18,6.89,.5,1.04,1.23,1.97,1.75,3,.97,1.92,1.94,3.85,2.78,5.83,.56,1.33,.92,2.67,2.27,3.57,.91,.61,.56,1.7-.53,2.02-.42,.12-.89,.1-1.34,.1-19.77-.02-39.55-.05-59.32-.08-.82,0-1.64,.03-2.45-.04-1.56-.13-2.74-.88-3.46-2.29-.62-1.21-1.39-2.36-1.84-3.63-.6-1.72-1.45-3.14-2.66-4.57-1.27-1.51-1.68-3.74-2.45-5.66-.2-.5-.18-1.34-.51-1.49-2.31-1.08-2.41-3.49-3.3-5.36-1.96-4.12-4.46-7.93-6.35-12.1-1.81-4-4.29-7.7-6.45-11.54-.31-.54-.45-1.18-.73-1.74-.44-.87-.95-1.7-1.4-2.57-.36-.7-.69-1.42-.99-2.14-.14-.33-.07-.84-.29-1.02-1.68-1.29-1.94-3.45-3.08-4.97-1.22-1.63-2.1-3.33-2.88-5.16-1.83-4.28-4.65-8.07-6.26-12.49-.59-1.63-1.86-3.07-3.04-4.4-.52-.58-1.6-.88-2.43-.91-3.72-.11-7.44-.12-11.16-.05-.74,.01-1.79,.32-2.14,.86-1.13,1.73-2.25,3.54-2.9,5.48-1.11,3.34-1.46,6.98-2.9,10.15-1.24,2.74-1.94,5.53-2.8,8.34-.64,2.07-1.63,4.01-1.71,6.24-.02,.52-.15,1.17-.48,1.53-1.71,1.85-1.56,4.4-2.49,6.43-1.6,3.47-1.49,7.48-3.73,10.71-.48,.69-.41,1.74-.67,2.61-.39,1.29-.86,2.55-1.28,3.83-.28,.85-.65,1.69-.8,2.56-.33,1.88-1.11,3.53-1.87,5.28-1.36,3.11-2.26,6.51-2.78,9.87-.42,2.73-2.17,4.74-2.95,7.23-.33,1.06-1.51,1.05-2.57,1.05-18.41-.04-36.83-.05-55.24-.06-1,0-2,.11-2.99,.05-2.07-.11-2.66-1.16-1.42-2.79,1.16-1.54,1.6-3.22,1.68-5.06,.06-1.4,.39-2.66,1.49-3.67,.44-.41,.81-1.02,.96-1.6,.82-3.33,1.56-6.68,2.33-10.02,.1-.44,.07-1.01,.34-1.3,2.56-2.73,2.11-6.68,3.97-9.7,.45-.73,.56-1.73,.62-2.61,.12-1.68,.47-3.15,1.77-4.4,.58-.56,.75-1.6,.95-2.47,.73-3.08,.82-6.46,2.22-9.18,1.7-3.27,2.03-6.92,3.68-10.15,.63-1.23,.7-2.79,.86-4.21,.15-1.3,.49-2.34,1.45-3.37,.79-.84,1.17-2.17,1.47-3.35,1.01-4.01,1.63-8.13,3.72-11.8,.4-.7,.68-1.49,.89-2.27,.8-2.97,1.55-5.95,2.32-8.92,.05-.18,.05-.38,.15-.52,2.04-2.78,2.24-6.23,3.42-9.33,.19-.51,.48-1.01,.54-1.53,.33-2.93,1.38-5.55,2.99-8.01,.32-.5,.44-1.2,.45-1.82,.02-1.57,.31-2.99,1.18-4.38,.48-.77,.4-1.91,.47-2.89,.1-1.48,.42-2.75,1.47-3.96,.78-.89,1.08-2.22,1.48-3.4,.55-1.61,1-3.26,1.5-4.89,.21-.69,.55-1.38,.59-2.08,.12-2.06,.67-3.9,2.13-5.44,.35-.37,.62-.95,.67-1.45,.42-4.96,2.52-9.4,4.22-13.98,.91-2.45,1.29-5.09,3.08-7.16,.17-.19,.23-.49,.29-.76,.71-3.36,1.39-6.72,2.14-10.07,.17-.77,.4-1.71,.94-2.16,1.35-1.13,1.44-2.61,1.74-4.13,.27-1.39,.79-2.73,1.23-4.08,.14-.43,.54-.8,.57-1.22,.22-3.14,1.63-5.81,3.03-8.54,.92-1.79,1.14-2.19,3.22-2.27,1.18-.04,2.36,0,3.54,0,17.69-.02,35.38-.04,53.07-.05,2.55,0,3.25,1.09,2.35,3.43-.55,1.42-.92,2.91-1.41,4.36-.4,1.2-.87,2.37-1.27,3.57-.51,1.54-1.01,3.08-1.48,4.63-.26,.86-.29,1.84-.73,2.59-.99,1.68-1.69,3.39-1.68,5.37,0,.35-.1,.75-.29,1.04-1.4,2.18-2.15,4.56-2.44,7.12-.05,.42-.27,.93-.58,1.21-1.71,1.52-1.69,3.68-2.33,5.65-1.19,3.67-1.44,7.68-3.78,10.96-.31,.43-.51,.97-.64,1.49-.69,2.71-1.33,5.44-1.99,8.16-.06,.26-.06,.57-.19,.79-1.81,3.09-2.48,6.57-3.5,9.94-.68,2.24-1.44,4.46-2.12,6.7-.31,1.04,.15,1.77,1.15,2.13,.34,.12,.71,.21,1.06,.21,4.17,.01,8.34,.08,12.51-.06,.99-.03,2.34-.5,2.88-1.24,2.34-3.15,5.94-4.73,8.69-7.32,2.42-2.28,5.29-4,7.61-6.45,1.96-2.06,4.49-3.57,6.72-5.39,2.22-1.81,4.39-3.68,6.56-5.55,.55-.47,.95-1.11,1.52-1.54,2.38-1.76,4.83-3.42,7.18-5.22,2.08-1.59,4.22-3.15,6.03-5.01,2.42-2.48,5.16-4.49,7.94-6.53,2.97-2.18,5.59-4.83,8.46-7.15,3.15-2.56,6.44-4.94,9.61-7.48,2.81-2.26,5.52-4.65,8.28-6.98,1.17-.99,2.33-1.99,3.54-2.92,2.7-2.1,5.43-4.15,8.13-6.24,.5-.38,.98-.83,1.33-1.34,1.57-2.24,3.84-2.89,6.4-2.89,18.69,0,37.37,.02,56.06,.03,1.79,0,3.57,0,5.68,0Z"/>
      <path class="cls-1" d="M464.95,329.37c1.47-1.65,2.62-3.11,3.96-4.38,.76-.72,1.92-1,2.72-1.68,2.41-2.03,4.72-4.19,7.1-6.26,1.83-1.59,3.75-3.08,5.54-4.72,2.25-2.07,4.39-4.26,6.6-6.37,1.44-1.37,2.95-2.66,4.37-4.04,2.64-2.59,5.29-5.17,7.84-7.85,3.17-3.34,6.37-6.65,9.29-10.2,2.8-3.4,6.1-6.35,8.6-10.05,1.74-2.58,4.17-4.69,6.3-7.01,.12-.13,.32-.24,.37-.39,1.36-4.19,5.17-6.63,7.34-10.27,1.73-2.9,4.09-5.42,6.16-8.12,.49-.64,.84-1.39,1.36-2.01,1.4-1.68,1.55-4.31,3.98-5.24,.32-.12,.47-.73,.67-1.13,.84-1.68,1.39-3.6,2.56-5,1.9-2.25,3.08-4.85,4.45-7.37,1.07-1.96,2.51-3.72,3.66-5.63,1.39-2.3,2.63-4.68,3.97-7,.36-.61,.88-1.13,1.31-1.7,.38-.5,.87-.95,1.11-1.51,.84-1.98,1.59-3.99,2.39-5.99,.13-.33,.22-.76,.48-.96,2.87-2.27,2.98-5.87,4.31-8.87,.18-.41,.2-.93,.47-1.26,2.52-3.07,3.12-7.04,4.91-10.41,2.11-3.99,3.25-8.21,4.37-12.5,.18-.68,.63-1.29,.93-1.95,.38-.82,.87-1.62,1.07-2.48,.7-2.97,1.53-5.89,2.36-8.82,.94-3.33,1.21-6.85,2.65-10.1,.49-1.11,.45-2.49,.48-3.75,.06-2.56,.28-5.04,1.35-7.43,.38-.87,.3-1.95,.39-2.94,.26-3.16,.59-6.31,.71-9.47,.23-5.96,.75-11.93-.35-17.89-.37-2.03-.16-4.16-.38-6.23-.21-1.96-.65-3.9-.98-5.85-.25-1.51-.57-3.02-.71-4.54-.17-1.83-.45-3.55-1.7-5.05-.53-.63-.82-1.62-.87-2.46-.11-1.94-.43-3.76-1.53-5.42-.34-.51-.58-1.16-.62-1.76-.1-1.54-.9-2.66-1.71-3.9-1.08-1.64-2.05-3.43-2.63-5.3-.82-2.62-2.79-4.41-4.19-6.6-1.68-2.62-3.66-5.06-5.61-7.5-1.01-1.26-2.35-2.24-3.35-3.5-3.23-4.08-7.47-7.02-11.57-10.08-4.04-3.02-8.07-6.14-12.46-8.56-3.9-2.15-7.61-4.94-12.24-5.58-.35-.05-.76-.12-1.02-.33-2.82-2.33-6.33-2.97-9.68-4.02-1.2-.38-2.27-1.15-3.47-1.52-2.76-.85-5.53-1.7-8.35-2.29-6.37-1.34-12.75-2.7-19.17-3.73-5.8-.93-11.67-1.44-17.51-2.14-.63-.08-1.26-.13-1.88-.26-.24-.05-.45-.27-1.07-.66,.95-.61,1.66-1.32,2.5-1.55,1.29-.36,2.68-.33,4.02-.57,1.85-.33,3.69-.74,5.53-1.13,.35-.08,.68-.32,1.03-.34,6.23-.29,12.12-3.1,18.48-2.49,1.06,.1,2.22-.03,3.22-.38,3.23-1.12,6.58-1.13,9.93-1.35,3.61-.23,7.19-.77,10.78-1.17,1.17-.13,2.34-.37,3.5-.37,10.25,0,20.5,.04,30.75,.07,.45,0,.91-.01,1.36,.05,6.52,.98,13.04,1.98,19.57,2.94,1.34,.2,2.71,.24,4.06,.36,2.06,.17,4.22-.03,5.89,1.59,.12,.12,.32,.17,.5,.21,3.42,.74,6.85,1.46,10.27,2.2,.7,.15,1.46,.21,2.09,.51,2.59,1.26,5.11,2.65,7.7,3.88,4.3,2.05,8.69,3.92,12.95,6.08,1.82,.92,3.38,2.37,5.07,3.56,.89,.63,1.75,1.32,2.71,1.8,3.34,1.68,6.26,3.89,8.84,6.58,.43,.45,.99,.79,1.5,1.15,1.86,1.33,3.52,2.83,4.46,4.99,.21,.49,.51,1.11,.93,1.3,2.23,1.03,2.86,3.4,4.38,5.03,3.11,3.34,4.39,7.82,6.93,11.55,1.03,1.52,1.49,3.47,2.04,5.28,1.44,4.8,4.05,9.27,3.93,14.52-.03,1.48,.62,2.98,.97,4.48,.14,.62,.39,1.23,.41,1.85,.14,6.43,.24,12.86,.35,19.29,0,.18,.02,.38-.04,.54-1.86,4.72-1.58,9.8-2.5,14.67-.23,1.23-.79,2.4-1.14,3.61-.43,1.46-.82,2.94-1.21,4.41-.23,.87-.37,1.76-.63,2.62-.62,1.98-1.25,3.97-1.95,5.92-.79,2.19-1.67,4.35-2.49,6.53-.54,1.44-1.04,2.89-1.55,4.33-.15,.43-.18,.96-.45,1.27-2.01,2.31-2.68,5.3-3.92,7.97-1.81,3.89-4.77,7.22-5.65,11.56-.08,.42-.36,.87-.68,1.15-2.05,1.76-3.01,4.23-4.28,6.49-.13,.24-.18,.63-.36,.71-2.26,.93-2.43,3.19-3.26,5.03-.67,1.47-1.63,2.66-2.73,3.9-2.3,2.6-4.06,5.69-6.04,8.58-.25,.37-.37,.84-.67,1.17-3.43,3.7-6.27,7.85-9.2,11.93-1.52,2.11-3.38,3.96-5.02,5.99-1.58,1.95-3.01,4.02-4.63,5.94-1.39,1.64-2.98,3.11-4.45,4.69-3.32,3.56-6.55,7.21-9.95,10.7-3.65,3.74-7.44,7.36-11.2,11-4.22,4.08-8.42,8.19-12.74,12.17-2.45,2.25-5.13,4.26-7.71,6.38-.35,.29-.68,.6-1.02,.89-4.94,4.2-10.04,8.23-14.76,12.66-3.31,3.11-6.9,5.83-10.4,8.68-.56,.45-1.14,.87-1.73,1.29-1.76,1.25-3.45,2.54-5.03,4.07-1.91,1.87-4.35,3.18-6.5,4.82-4.37,3.33-8.55,6.94-13.11,10-2.22,1.49-4.2,3.23-6.37,4.75-3.02,2.13-6.39,3.7-9.37,5.85-4.23,3.04-8.45,6.06-12.89,8.79-2.38,1.46-4.49,3.34-6.76,4.98-1.89,1.36-3.83,2.67-5.79,3.92-.36,.23-.96,.1-1.5,.14Z"/>
      <path d="M309.54,434.35c.19-.33,.26-.68,.45-.76,1.98-.82,4.17-1.3,5.92-2.46,3.39-2.26,7.77-2.42,10.81-5.43,.96-.95,2.62-1.17,3.91-1.82,2.17-1.1,4.28-2.33,6.47-3.4,2.83-1.39,5.72-2.64,8.55-4.03,1.54-.75,3-1.65,4.49-2.5,.94-.54,1.88-1.09,2.81-1.65,1.31-.78,2.57-1.66,3.94-2.33,1.45-.71,3.04-1.14,4.49-1.85,3.12-1.54,6.2-3.16,9.27-4.79,4.94-2.62,9.87-5.27,14.78-7.94,2.61-1.42,5.18-2.94,7.78-4.37,1.73-.96,3.51-1.84,5.26-2.78,4.3-2.29,8.59-4.59,12.88-6.89,.56-.3,1.1-.64,1.69-.86,3.36-1.25,3.8-2.43,2.93-7.11-.48,.32-.94,.52-1.26,.86-.92,1-1.74,2.09-2.67,3.07-1.45,1.53-3.36,1.94-5.24,1.34-1.94-.63-2.84-2.27-3.16-4.34-1.32-8.7,4.75-19.13,11.39-22.11,1.79-.8,3.27-1.25,5.01,.14,1.39,1.11,2.02,.78,2.52-.89,.6-1.99,1.13-4.01,1.77-5.99,.41-1.28,.53-2.34-.54-3.48-1.04-1.1-.77-2.04,.71-2.39,2.1-.5,4.28-.8,6.43-.87,1.39-.04,1.39,1.23,1.1,2.25-.68,2.44-1.45,4.85-2.16,7.28-1.52,5.21-3.01,10.44-4.53,15.65-.73,2.51-1.53,5-2.22,7.52-.15,.55,.02,1.18,.04,1.77,.67-.03,1.45,.15,1.98-.13,5.46-2.88,10.91-5.8,16.31-8.8,1.57-.87,2.93-2.13,4.5-3.03,4.23-2.42,8.56-4.66,12.77-7.12,2.96-1.73,5.73-3.77,8.67-5.55,2.68-1.63,5.47-3.07,8.2-4.62,1.26-.71,2.62-1.31,3.7-2.24,2.39-2.06,5.37-3.16,7.83-5.15,2.62-2.12,5.82-3.54,8.77-5.26,1.32-.77,2.64-1.53,3.95-2.31,.77-.46,1.5-.99,2.27-1.46,.54-.33,1.21-.51,1.65-.93,3.75-3.6,8.63-5.46,12.84-8.33,.07-.05,.17-.07,.24-.13,3.94-3.28,8.88-5.2,12.38-9.09,.35-.39,.81-.77,1.29-.96,4.8-1.86,8.57-5.28,12.65-8.22,2.33-1.68,4.77-3.21,7.15-4.82,.52-.35,1.03-.72,1.52-1.11,.49-.4,.9-.91,1.41-1.27,3.26-2.24,6.55-4.45,9.81-6.69,.44-.3,.77-.76,1.2-1.08,1.15-.86,2.32-1.67,3.48-2.51,2.18-1.58,4.36-3.16,6.53-4.75,.44-.32,.77-.8,1.24-1.06,1.94-1.11,3.71-2.23,5.22-4.08,1.52-1.88,4.13-2.83,6.02-4.47,2.65-2.3,5.76-4.01,8.08-6.74,1.26-1.48,3.07-2.47,4.62-3.7,2.54-2.02,5.08-4.04,7.59-6.1,1.61-1.32,3.17-2.69,4.72-4.08,2.42-2.17,4.83-4.34,7.21-6.56,3.69-3.45,7.34-6.95,11.04-10.38,.72-.67,1.66-1.11,2.44-1.72,.86-.66,1.7-1.35,2.47-2.11,2.64-2.59,5.24-5.21,7.85-7.82,.38-.38,.74-.79,1.1-1.2,2.58-2.88,4.94-6.01,7.81-8.57,3.12-2.79,5.49-6.19,8.34-9.19,2.1-2.21,3.48-5.2,5.79-7.1,3.07-2.52,4.52-6.15,7.19-8.94,2.81-2.95,4.46-6.99,7.21-10.01,2.54-2.79,3.62-6.42,6.22-9.11,.9-.93,1.32-2.33,1.94-3.53,1.91-3.7,4.43-7.04,6.04-10.95,1.11-2.71,2.96-5.11,4.49-7.65,.19-.31,.56-.58,.59-.9,.31-2.8,2.59-4.97,2.5-7.91-.02-.66,.26-1.54,.73-1.96,1.34-1.22,1.57-2.79,1.81-4.41,.12-.79,.2-1.69,.63-2.32,1.29-1.9,1.51-4.05,1.74-6.2,.18-1.66,.56-3.16,1.57-4.55,.56-.77,.92-1.81,1.02-2.76,.46-4.51,.79-9.02,1.19-13.54,.63-7.09,.13-14.13-.74-21.16-.16-1.26-.33-2.53-.32-3.79,0-2.24-.41-4.3-1.84-6.12-.38-.48-.75-1.16-.71-1.72,.2-3.69-2.64-6.55-2.7-10.16,0-.17-.07-.39-.19-.5-2.57-2.56-2.63-6.27-4.29-9.25-.43-.77-1.03-1.45-1.56-2.16-.37-.5-.78-.98-1.14-1.49-.6-.86-1.22-1.71-1.75-2.62-.19-.33-.17-.78-.24-1.17,.4,0,.92-.16,1.18,.03,3.32,2.51,5.64,5.92,8.13,9.17,.71,.93,1.52,1.8,2.19,2.76,1.54,2.22,2.9,4.58,4.55,6.71,1.2,1.55,2.52,2.99,3.4,4.76,.48,.96,1.09,1.85,1.62,2.78,.22,.39,.25,.96,.55,1.23,2.66,2.31,3.52,5.53,4.53,8.68,.06,.17,.1,.37,.21,.5,2.84,3.13,3.6,7.16,4.72,11.03,.05,.17,.07,.38,.17,.52,2.57,3.61,2.54,8.06,3.94,12.05,.06,.17,.12,.35,.14,.52,1.1,9.06,3.47,17.98,2.84,27.23-.37,5.52-.74,11.03-2.1,16.42-.11,.44-.29,.89-.27,1.33,.17,3.97-1.23,7.68-1.97,11.48-.46,2.36-1.56,4.6-2.38,6.89-.09,.25-.29,.47-.36,.73-.83,3.03-1.64,6.07-2.47,9.1-.14,.52-.18,1.15-.51,1.53-2.36,2.76-2.98,6.31-4.39,9.49-.07,.16-.08,.38-.19,.5-2.46,2.64-2.92,6.43-5.02,9.16-3.14,4.1-4.73,9.08-8.12,13.04-2.07,2.42-3.31,5.53-5.2,8.14-1.67,2.3-3.73,4.32-5.61,6.47-.36,.41-.69,.84-.97,1.3-3.36,5.37-7.77,9.93-11.67,14.88-2.82,3.58-6.08,6.84-9.41,9.95-1.8,1.68-3.51,3.31-4.88,5.37-.82,1.24-2.15,2.14-3.26,3.17-3.45,3.19-6.87,6.42-10.37,9.55-2.29,2.05-4.73,3.92-7.04,5.94-1.22,1.07-2.3,2.28-3.42,3.45-.31,.32-.51,.78-.86,1.04-3.89,2.88-7.85,5.67-11.7,8.62-2.79,2.14-5.43,4.47-8.14,6.72-.35,.29-.65,.67-1.04,.86-4.03,1.93-7.46,4.74-10.94,7.46-4.76,3.72-9.7,7.14-15.09,9.89-.64,.32-1.16,.86-1.74,1.3-2.72,2.05-5.66,3.77-8.48,5.64-3.01,1.99-6.01,3.98-9.12,5.81-3.49,2.05-7.3,3.67-10.43,6.16-3.18,2.53-7.35,3.02-10.32,5.83-1.12,1.06-2.9,1.39-4.32,2.17-1.18,.64-2.26,1.48-3.43,2.17-1,.59-2.04,1.11-3.07,1.64-.32,.16-.78,.16-1,.39-2.9,3.04-7.19,3.52-10.61,5.69-2.28,1.45-4.97,2.47-7.4,3.85-2.74,1.56-5.53,3.04-8.31,4.51-1.04,.55-2.13,1-3.21,1.47-2.98,1.3-5.98,2.54-8.93,3.91-2.36,1.1-4.65,2.35-6.97,3.54-.48,.25-.92,.58-1.42,.8-3.06,1.35-6.16,2.6-9.17,4.04-2.5,1.2-4.86,2.7-7.37,3.9-1.78,.85-3.69,1.43-5.55,2.12-.59,.22-1.32,.26-1.77,.64-3.41,2.85-7.84,3.58-11.66,5.61-4.13,2.2-8.55,3.91-12.94,5.55-5.06,1.89-9.9,4.28-14.92,6.25-5.36,2.1-10.89,3.78-16.3,5.77-2.02,.74-3.86,1.95-5.86,2.75-3.87,1.54-7.81,2.9-11.69,4.4-2.51,.97-4.95,2.1-7.46,3.04-1.76,.66-3.6,1.08-5.38,1.7-4.26,1.48-8.54,2.93-12.75,4.56-2.08,.81-4.03,1.88-6.21,2.57-3.68,1.15-7.22,2.71-11.03,3.56-2.53,.56-4.92,1.7-7.4,2.52-1.97,.66-4,1.17-5.95,1.87-2.38,.85-4.7,1.86-7.07,2.73-2.45,.9-4.89,1.99-7.43,2.49-1.77,.35-3.13,1.32-4.71,1.88-2.11,.76-4.37,1.1-6.53,1.74-1.55,.46-3.05,1.08-4.55,1.68-1.34,.53-2.66,1.14-3.93-.24Zm100.68-63.52c.28,.54,.53,1.58,1.18,2.11,.99,.79,2.11,.18,2.91-.6,.7-.68,1.36-1.47,1.81-2.33,1.04-2,2.07-4.02,2.86-6.12,.78-2.1,1.35-4.3,1.82-6.49,.3-1.4-.86-3.71-1.81-3.93-1.41-.32-2.1,.82-2.86,1.67-2.43,2.7-3.31,6.15-4.41,9.47-.62,1.87-.93,3.84-1.5,6.23Z"/>
      <path d="M207.15,136.75c-.82-1.66-.51-2.63,.62-2.9,1.37-.32,2.22-1.12,2.99-2.15,.11-.14,.25-.26,.4-.37,3.22-2.33,6.45-4.65,9.68-6.97,1.83-1.32,3.82-2.46,5.47-3.97,3.65-3.33,8.16-5.34,12.11-8.21,2.7-1.96,5.34-4.02,8.14-5.81,3.27-2.08,6.71-3.87,10.03-5.87,1.94-1.17,3.75-2.53,5.66-3.75,1.52-.97,3.07-1.88,4.65-2.74,3.39-1.85,6.8-3.68,10.23-5.47,2.23-1.17,4.51-2.23,6.74-3.4,.71-.37,1.29-.97,1.95-1.43,.66-.47,1.29-1.18,2.01-1.3,3.7-.62,6.44-3.24,9.79-4.57,3.33-1.32,6.55-2.93,9.82-4.41,.33-.15,.74-.21,.99-.44,3.49-3.22,8.14-4.24,12.33-5.81,5.31-1.99,10.13-5.26,15.85-6.18,.44-.07,.89-.25,1.26-.5,3.32-2.27,7.27-3.08,10.85-4.68,3.57-1.6,7.38-2.05,10.98-3.36,2.54-.92,5.13-1.73,7.72-2.5,4.23-1.27,8.47-2.47,12.71-3.7,2.86-.83,5.71-1.7,8.59-2.47,1.83-.49,3.7-.83,5.56-1.22,.35-.07,.73-.05,1.08-.13,2.99-.66,5.99-1.34,8.98-2.01,7.78-1.76,15.64-2.94,23.63-3.31,5.05-.23,10.07-1.16,15.13-1.4,5.06-.25,10.16-.23,15.22,.03,5.69,.29,11.38,.87,17.04,1.55,3.59,.43,7.26,.89,10.65,2.05,3.85,1.31,7.82,2.17,11.64,3.51,2.27,.79,4.26,2.45,6.55,3.09,2.89,.81,4.89,2.96,7.51,4.17,2.74,1.27,5.05,3.44,7.55,5.22,1.93,1.37,3.78,2.8,4.88,4.99,3.98,2.37,5.71,6.65,8.3,10.14,2.6,3.52,5.01,7.31,6.23,11.65,.12,.44,.18,.95,.46,1.27,2.59,3.05,2.66,7.05,3.95,10.58,.79,2.16,.71,4.64,1.12,6.95,.19,1.05,.41,2.19,.98,3.06,.99,1.53,1.34,3.15,1.38,4.9,.09,4.44,.16,8.88,.23,13.32,0,.45,.1,.99-.1,1.34-.31,.55-.85,.98-1.29,1.46-.49-.46-1.38-.91-1.4-1.39-.07-2.32-1.21-4.21-2.38-6-1.56-2.4-3.33-4.7-5.27-6.81-2.67-2.92-5.56-5.65-8.39-8.42-.5-.49-1.19-.79-1.8-1.17-.69-.43-1.46-.77-2.06-1.29-3.93-3.4-8.35-5.99-13.12-8.03-1.98-.84-3.82-2.04-5.83-2.75-4.64-1.64-9.02-4.01-13.94-4.86-.53-.09-1.1-.22-1.55-.49-3.84-2.3-8.26-2.55-12.48-3.49-4.68-1.04-9.39-1.92-14.09-2.87-.44-.09-.89-.19-1.34-.23-14.52-1.24-28.98-3.41-43.63-2.77-7.79,.34-15.59,.49-23.38,.79-1.35,.05-2.68,.43-4.02,.61-2.24,.3-4.48,.72-6.73,.82-4.71,.21-9.39,.48-14.06,1.33-5.78,1.05-11.65,1.59-17.47,2.44-2.51,.36-4.98,.94-7.47,1.42-1.95,.37-3.98,.5-5.83,1.15-4.98,1.74-10.24,2.14-15.29,3.5-.44,.12-.95,.05-1.33,.25-4.3,2.35-9.27,2.06-13.79,3.53-2.14,.7-4.32,1.28-6.47,1.99-6.53,2.16-13.19,3.99-19.51,6.65-4.3,1.81-8.76,3.15-13.09,4.78-5.17,1.94-10.23,4.08-15.23,6.37-4.75,2.18-9.38,4.64-14.07,6.96-2.74,1.36-5.56,2.56-8.22,4.06-5.11,2.9-10.23,5.81-15.13,9.03-2.02,1.33-4.15,2.42-6.17,3.71-.6,.38-1.07,.95-1.63,1.39-.6,.48-1.23,.91-2.09,1.54Z"/>
      <path d="M314.75,339.54c-.2,.31-.31,.68-.49,.72-2.67,.65-3.15,2.94-3.39,5.04-.61,5.39-.95,10.82-1.38,16.23-.02,.25,.13,.51,.24,.87,1.21,.03,1.7-.92,2.23-1.67,2.43-3.38,4.75-6.85,7.22-10.2,1.69-2.3,1.78-4.94,1.61-7.52-.08-1.15-1.31-2.23-2.09-3.47,1.28-1.54,2.99-.41,4.47-.56,1.53-.16,3.08-.09,4.62-.03,1.53,.06,3.2-.8,4.66,.54-.18,.32-.26,.71-.44,.76-2.79,.79-3.4,3.15-3.65,5.49-.56,5.31-.88,10.64-1.29,15.97-.01,.16,.13,.33,.25,.61,1.05,.2,1.59-.57,2.08-1.28,3.56-5.13,7.09-10.28,10.62-15.43,.31-.45,.54-.95,.84-1.4,.83-1.25,.74-2.36-.44-3.36-.39-.33-.68-.77-1.01-1.15,.74-1.29,1.81-.79,2.74-.81,1.08-.03,2.17-.03,3.26-.05,.96-.02,1.99-.32,2.67,.64-.06,.28-.04,.54-.15,.61-3.64,2.49-5.57,6.35-7.98,9.83-4.64,6.7-9.33,13.37-13.97,20.06-1.65,2.38-3.19,4.83-4.84,7.21-.43,.62-1.06,1.1-2.08,2.13-.32-1.42-.71-2.23-.65-3.01,.45-5.87,.99-11.73,1.49-17.6,.11-1.31,.67-2.65-.43-4.31-.74,.82-1.44,1.45-1.95,2.21-4.6,6.73-9.16,13.48-13.75,20.22-.53,.78-.89,2.08-2.15,1.63-1.21-.42-.83-1.66-.76-2.62,.79-10.21,1.53-20.42,2.45-30.61,.21-2.29-.48-4.01-2.19-5.5,1.36-1.67,2.98-.64,4.38-.76,1.62-.13,3.26-.08,4.89-.04,1.44,.03,3.02-.75,4.36,.59Z"/>
      <path d="M151.79,379.6c.55-2.44-1.85-4.1-.69-6.35,1.01-1.96,2.61-3.16,4.72-4.21-.37-.59-.58-1.2-1-1.55-5.11-4.21-2.89-10.58,.97-13.27,2.8-1.95,5.9-3.18,9.42-2.84,.63,.06,1.35,.05,1.85,.35,2.46,1.48,5.1,1.74,7.87,1.42,2.04-.23,2.37,1.69,1.59,2.95-.24,.39-.84,.71-1.32,.78-1.39,.22-1.85,1-1.65,2.29,.96,6.02-4.8,10.27-9.93,10.6-1.26,.08-2.53-.09-3.8-.1-.72,0-1.45-.01-2.16,.11-.97,.17-1.42,.97-1.22,1.81,.14,.58,.73,1.31,1.27,1.48,2.32,.72,4.7,1.24,7.05,1.85,5.99,1.57,7.65,7.59,4.14,11.83-1.67,2.02-3.68,3.55-6.38,3.75-3.41,.26-6.86,1.01-10.24-.17-1.35-.47-2.71-1.01-3.93-1.74-1.52-.92-2.83-2.28-2.49-4.18,.35-1.95,1.74-3.35,3.6-4.13,.73-.31,1.53-.46,2.34-.7Zm6.71,9.89c1.68-.63,3.37-1.04,4.81-1.87,2.04-1.19,2.09-4.12,.01-5.11-2.24-1.06-4.71-1.71-7.15-2.3-1.82-.44-3.22,.33-4.26,2.05-1.37,2.26-1.18,4.26,1.16,5.43,1.65,.83,3.54,1.19,5.43,1.8Zm-.37-25.46c.03,1.73,.98,3.24,2.06,3.63,1.18,.43,2.83-.16,3.8-1.44,1.85-2.44,2.44-5.41,3.22-8.26,.55-2-.2-3.6-1.74-4.39-1.18-.61-2.56-.09-3.96,1.54-2.29,2.67-2.41,6.13-3.38,8.92Z"/>
      <path d="M247.11,373.26c1.99,1.04,2.02-1.23,3.53-1.65,.02,.63,.26,1.34,.01,1.61-1.45,1.6-2.96,3.15-4.57,4.6-.48,.43-1.3,.61-1.99,.67-3.28,.28-4.84-1.3-4.2-4.56,.52-2.65,1.36-5.25,2.17-7.84,.64-2.07,1.43-4.08,2.14-6.13,.09-.25,.22-.55,.17-.79-.14-.58-.23-1.4-.62-1.62-.38-.22-1.31-.02-1.66,.34-1.77,1.8-3.67,3.54-5.08,5.61-2.45,3.59-4.31,7.49-5.17,11.84-.66,3.33-2.82,4.06-6.98,2.48,.27-1.34,.47-2.75,.85-4.1,2-7.15,4.04-14.28,6.07-21.42,.54-1.91,1.17-3.8,1.62-5.73,.45-1.93,1.08-4-1.9-5.33,1.12-.75,1.82-1.53,2.66-1.72,1.93-.44,3.92-.68,5.91-.83,1.2-.09,1.7,.81,1.3,2.36-.58,2.28-1.31,4.52-1.96,6.78-.96,3.3-1.94,6.6-2.86,9.91-.23,.83-.25,1.71-.36,2.53,1.52,.44,1.81-.53,2.3-1.27,1.81-2.75,3.91-5.19,6.98-6.66,1.44-.69,2.89-1.45,4.29-.23,1.43,1.25,2.25,2.91,1.76,4.86-.79,3.16-1.69,6.29-2.59,9.41-.48,1.65-1.09,3.27-1.57,4.92-.19,.66-.18,1.37-.24,1.98Z"/>
      <path d="M100.29,371.86c-.26,3.48-3.05,6.39-5.92,6.93-3,.56-4.43-.65-4.46-3.72,0-.49-.12-.99-.22-1.68-1.62,.53-2.22,1.8-3.04,2.79-1,1.2-1.99,2.28-3.67,2.59-2.94,.54-5.16-.96-5.71-3.93-1.62-8.71,4.22-19.54,11.78-22.9,1.52-.68,2.82-.83,4.27,.33,1.4,1.12,2.24,.72,2.77-.97,.52-1.64,.97-3.3,1.5-4.94,.54-1.65,1.24-3.22-.56-4.68-.83-.67-.34-1.73,.53-1.92,2.29-.49,4.62-.91,6.95-1,1.38-.05,1.3,1.27,1.03,2.28-.53,2.01-1.13,4-1.71,6-2.13,7.39-4.26,14.78-6.4,22.17-.35,1.22-.91,2.38-1.19,3.61-.12,.51,.25,1.13,.39,1.69,.52-.22,1.11-.34,1.54-.68,.76-.59,1.41-1.31,2.11-1.98Zm-5.76-14.95c-.22-.63-.38-1.24-.65-1.79-1-2.04-1.81-2.25-3.47-.76-.79,.71-1.53,1.56-2.07,2.48-2.28,3.87-3.15,8.24-4.27,12.52-.16,.6-.12,1.27-.08,1.89,.14,1.81,1.51,2.59,3.01,1.53,1.07-.76,2.07-1.81,2.7-2.95,1.22-2.21,2.29-4.52,3.18-6.89,.73-1.93,1.1-4,1.64-6.04Z"/>
      <path d="M196.76,348.92c.28-1.4,.47-2.62,.78-3.81,.34-1.31,.83-2.57,1.18-3.88,.5-1.88,.86-2.26,2.78-2.31,2.36-.06,4.71-.04,7.07-.03,5.62,0,11.24,.02,16.87,.02,2.77,0,3.22,.56,2.55,3.23-.4,1.57-.66,3.18-1.15,4.73-.24,.77-.84,1.42-1.28,2.12-.23-.04-.45-.08-.68-.12-.19-.82-.4-1.64-.58-2.47-.49-2.26-2.17-3.79-4.41-4.16-1.26-.21-2.13,.19-2.69,1.3-.32,.65-.65,1.31-.84,2-1.8,6.81-3.56,13.64-5.33,20.46-.55,2.1-1.16,4.19-1.66,6.31-.71,2.95-.46,3.38,2.36,4.77,.21,.1,.33,.37,.6,.69-.3,.26-.54,.67-.79,.67-4.89,.06-9.78,.1-14.67,.08-.44,0-.87-.42-1.62-.81,.67-.39,1.02-.76,1.39-.78,2.19-.1,3.2-1.59,3.85-3.34,.72-1.95,1.26-3.97,1.83-5.97,1.33-4.7,2.63-9.4,3.93-14.11,.89-3.22,1.78-6.45,2.65-9.67,.24-.89-.18-1.55-1.02-1.54-1.15,.01-2.43,.05-3.42,.54-2.18,1.09-4.23,2.47-5.37,4.79-.36,.73-.7,1.49-2.33,1.27Z"/>
      <path d="M29.28,348.77c-.18-.77-.49-1.46-.47-2.14,.05-1.97-1.26-3.06-2.69-3.76-2.68-1.32-4.3-.94-5.14,2.13-1.08,3.91-2.12,7.83-3.16,11.76-1.25,4.71-2.5,9.43-3.75,14.14-.16,.61-.37,1.22-.51,1.83-.53,2.37-.09,3.19,2.19,4.18,.32,.14,.62,.32,1,.52-.38,1.44-1.5,1.17-2.4,1.18-2.35,0-4.71-.09-7.06-.09-1.36,0-2.72,.13-4.07,.1-1.04-.03-2.07-.23-3.1-.35-.04-.19-.08-.39-.12-.58,.46-.27,.91-.75,1.39-.79,1.72-.12,2.6-1.23,3.18-2.6,.67-1.58,1.27-3.2,1.72-4.85,2.09-7.58,4.11-15.17,6.16-22.76,.21-.78,.48-1.55,.68-2.34,.4-1.53-.17-2.3-1.77-2.1-3.34,.42-5.86,2.19-7.63,5.04-.51,.82-.81,1.89-2.46,1.44,.19-1.05,.3-2.1,.56-3.11,.38-1.49,.87-2.95,1.3-4.42,.55-1.88,.92-2.25,2.83-2.26,8.15-.03,16.3-.04,24.45-.03,2.12,0,2.55,.58,2.08,2.69-.41,1.85-.87,3.69-1.35,5.52-.2,.77-.41,1.62-1.88,1.66Z"/>
      <path d="M142.72,374.25c1.4-.99,2.45-1.74,3.76-2.67,.03,.6,.26,1.21,.05,1.44-1.3,1.49-2.71,2.9-4.06,4.35-1.04,1.11-2.37,1.22-3.76,1.15-2.23-.11-3.5-1.45-3.41-3.67,.03-.71,.23-1.43,.43-2.12,1.19-4.08,2.41-8.15,3.62-12.22,.1-.35,.34-.68,.34-1.03,0-.67-.12-1.35-.19-2.02-.73,.17-1.71,.11-2.16,.56-4.1,4.14-7.86,8.53-9.32,14.4-.35,1.41-.75,2.81-1.25,4.16-.24,.63-.68,1.55-1.19,1.66-1.91,.45-3.88,.53-6-.29,.32-1.59,.51-3.02,.9-4.38,1.34-4.69,2.69-9.38,4.17-14.02,.68-2.15,.98-4.07-1.3-5.37,.35-1.31,1.34-1.26,2.19-1.44,1.76-.37,3.52-.81,5.3-1.08,.74-.11,1.81-.12,2.24,.32,.39,.39,.33,1.5,.13,2.19-.47,1.65-1.16,3.23-1.71,4.85-.13,.38-.02,.85-.02,1.5,1.55-.54,2.2-1.72,2.98-2.75,1.83-2.43,4.02-4.4,6.81-5.68,2.79-1.28,5.45,.05,5.68,3.14,.12,1.67-.13,3.44-.58,5.07-1.11,4.01-2.46,7.96-3.66,11.95-.14,.46-.02,1-.02,2Z"/>
      <path d="M61.52,373.91c-.38,.3-.87,.61-1.27,1.01-.95,.96-1.75,2.12-2.82,2.92-2.84,2.13-5.8,1.24-7.25-1.97-.77-1.71-1.14-3.45-.82-5.29,1.11-6.52,3.57-12.33,8.89-16.61,.42-.34,.84-.7,1.3-.98,3.74-2.27,4.37-2.22,7.66,.56,1.36-.51,2.76-1.14,4.21-1.55,2.65-.74,3.55,.23,2.8,2.91-.54,1.91-1.12,3.8-1.67,5.71-1.05,3.65-2.09,7.3-3.13,10.96-.12,.44-.34,.9-.29,1.32,.07,.56,.36,1.09,.56,1.63,.51-.26,1.07-.45,1.51-.79,.61-.46,1.14-1.03,2.13-1.31-.07,.46-.01,.99-.23,1.36-1.6,2.61-3.53,4.78-6.86,5.13-2.66,.28-3.84-.68-4.07-3.38-.04-.44-.14-.87-.23-1.31-.01-.06-.13-.1-.43-.31Zm-4.79-4.65c0,1.1-.11,1.59,.03,1.99,.22,.64,.51,1.62,.95,1.73,.66,.16,1.49-.27,2.23-.52,.22-.08,.34-.41,.52-.61,3.31-3.59,4.66-8.08,5.82-12.65,.24-.93,.18-2.01,0-2.97-.42-2.26-2.31-2.87-3.94-1.32-.58,.56-1.19,1.18-1.53,1.89-1.99,4.17-3.91,8.37-4.08,12.46Z"/>
      <path d="M364.23,360.58c-.89,6.25-3.54,12.11-9.57,16.17-2.96,1.99-6.04,2.58-9.51,2.07-2.24-.33-3.55-1.71-4.53-3.48-1.12-2.03-1.45-4.2-1.06-6.56,1.07-6.55,4.27-11.67,9.9-15.17,1.37-.85,2.92-1.47,4.46-1.95,4.58-1.43,10.17,2.38,10.31,8.93Zm-6.5-2.33c0-1.04,.2-1.69-.04-2.1-.57-.97-1.18-2.06-2.07-2.67-.96-.66-1.88,.22-2.56,.96-.85,.93-1.84,1.81-2.42,2.89-2.56,4.84-3.98,10.07-4.79,15.45-.31,2.05,.49,3.59,1.83,4.18,1.27,.56,2.56-.1,4-2.02,3.83-5.1,4.9-11.15,6.04-16.71Z"/>
      <path d="M276.05,371.67c.14,.59,.27,.83,.2,.92-2.06,2.96-4.59,5.36-8.29,5.98-1.76,.3-3.61,.39-5.39,.21-3.49-.34-5.78-2.58-6.01-6.12-.14-2.12,.04-4.39,.66-6.41,2.29-7.45,7.29-12.34,14.79-14.55,1.01-.3,2.17-.36,3.21-.22,3.12,.43,4.87,3.31,3.75,6.23-1.65,4.31-4.78,7.16-9.14,8.63-1.2,.4-2.46,.59-3.68,.93-2.44,.68-3.23,2.46-2.18,4.81,1.24,2.76,4.35,3.75,7.34,2.25,1.2-.6,2.28-1.43,3.43-2.12,.35-.21,.76-.33,1.3-.55Zm-10.27-6.13c1.18-.68,2.36-1.18,3.33-1.95,2.27-1.82,3.83-4.13,3.88-7.16,.01-.64-.32-1.56-.8-1.85-.43-.26-1.36,.01-1.92,.33-.69,.38-1.39,.95-1.79,1.62-1.22,2-2.36,4.06-3.4,6.16-.44,.89-.56,1.94,.7,2.86Z"/>
      <path d="M394.08,341.11c.91-.7,1.4-1.36,1.98-1.47,2.22-.42,4.46-.75,6.7-.92,1.17-.09,1.52,.79,1.23,1.87-.72,2.7-1.43,5.4-2.19,8.09-1.59,5.66-3.2,11.31-4.82,16.97-.7,2.43-1.46,4.84-2.12,7.28-.14,.53,.01,1.14,.03,1.72,.66-.09,1.44,0,1.97-.32,.58-.35,.88-1.14,1.4-1.62,.36-.33,.88-.48,1.84-.96-.37,1.03-.43,1.65-.76,2.07-1.85,2.32-3.59,4.78-6.96,5.11-3.54,.35-5.43-1.56-4.65-5.05,.71-3.18,1.61-6.31,2.52-9.44,1.82-6.33,3.57-12.69,5.64-18.94,.65-1.96,.21-3.06-1.8-4.36Z"/>
      <path d="M366.34,378.26c.99-3.87,1.83-7.19,2.69-10.5,.83-3.15,1.67-6.3,2.54-9.44,.38-1.35,.27-2.49-1-3.35-.33-.23-.51-.67-.99-1.33,.97-.32,1.69-.59,2.43-.79,1.57-.41,3.14-.84,4.73-1.15,.66-.13,1.75-.19,1.98,.16,.36,.54,.32,1.49,.14,2.2-.31,1.26-1.1,2.43-.57,4.45,.78-.96,1.27-1.52,1.71-2.12,.96-1.31,1.76-2.76,2.87-3.92,1.48-1.55,2.83-1.27,3.98,.54,1.23,1.94,.46,6.08-1.38,7.48-.88,.67-1.59,.4-2.43-.23-1.89-1.43-2.11-1.47-3.26,.59-1.66,2.98-3.15,6.08-4.49,9.22-.84,1.98-1.29,4.13-1.87,6.22-.39,1.39-1.21,2.24-2.69,2.23-1.32-.01-2.65-.14-4.42-.24Z"/>
      <path d="M31.29,353.67c.7-.28,1.32-.59,1.98-.77,1.74-.46,3.5-.87,5.25-1.29,1.81-.44,2.67,.42,2.15,2.17-.18,.6-.54,1.15-.76,1.74-.31,.84-.58,1.69,.22,2.82,.47-.63,.8-1.08,1.14-1.52,1.2-1.57,2.28-3.26,3.65-4.66,1.06-1.08,2.09-.85,3.07,.2,2.28,2.44,.54,7-1.23,8.31-.77,.57-1.47,.17-2.18-.43-1.57-1.33-2.02-1.22-3.17,.36-2.37,3.26-3.71,6.99-4.95,10.76-.59,1.8-1.01,3.66-1.7,5.42-.26,.65-1,1.42-1.64,1.54-1.56,.3-3.21,.56-4.95-.47,.22-1.29,.35-2.62,.69-3.9,1.18-4.45,2.44-8.89,3.66-13.33q1.07-3.9-1.24-6.94Z"/>
      <path d="M116.66,372.54c-1.85,2.66-3.49,5.53-7.14,6.33-3.03,.66-5.94-1.95-4.69-5.5,1.63-4.6,2.89-9.34,4.38-13.99,.69-2.15,.22-3.88-1.51-5.15,.27-1.39,1.27-1.32,2.14-1.48,1.86-.36,3.72-.71,5.56-1.12,1.86-.41,2.71,.29,2.23,2.09-1.04,3.85-2.18,7.67-3.33,11.48-.62,2.08-1.37,4.12-2.02,6.19-.19,.6-.35,1.26-.29,1.87,.04,.45,.36,.98,.72,1.26,.15,.12,.8-.22,1.1-.5,.75-.7,1.43-1.47,2.13-2.22,.24,.24,.48,.49,.71,.73Z"/>
      <path d="M116,338.61c1.91,0,3.92,2.08,3.92,4.07,0,1.74-2.28,4.21-3.96,4.29-1.81,.1-3.8-2.05-3.83-4.13-.04-2.59,1.46-4.23,3.87-4.24Z"/>
    </g>
  </g>
</svg>