<?xml version="1.0" encoding="UTF-8"?>
<svg id="Layer_2" data-name="Layer 2" xmlns="http://www.w3.org/2000/svg" viewBox="0 0 301.09 178.65">
  <defs>
    <style>
      .cls-1 {
        fill: #fa6a25;
      }

      .cls-2 {
        fill: #fff;
      }
    </style>
  </defs>
  <g id="Layer_1-2" data-name="Layer 1">
    <g>
      <path class="cls-2" d="M109.8,136.39c.79-.66,.87-1.51,1.01-2.36,.07-.43,.27-.85,.39-1.27,.12-.42,.24-.85,.34-1.28,.06-.25,0-.58,.14-.76,.84-1.1,1.12-2.43,1.41-3.71,.38-1.67,1.16-3.17,1.64-4.78,.46-1.56,1.04-3.09,1.53-4.65,.42-1.35,.78-2.71,1.19-4.06,.17-.56,.39-1.11,.6-1.65,.12-.31,.34-.6,.39-.91,.16-.93,.33-1.83,1.07-2.51,.1-.09,.18-.27,.17-.4-.11-1.49,.99-2.71,.94-4.2-.01-.36,.32-.73,.47-1.1,.24-.61,.45-1.24,.7-1.85,.59-1.47,.72-3.11,1.59-4.48,.1-.16,.19-.33,.23-.51,.34-1.33,.66-2.66,.99-3.99,.04-.14,.03-.31,.11-.43,.83-1.23,.92-2.73,1.51-4.05,.15-.34,.31-.7,.33-1.06,.06-.8,.23-1.54,.77-2.16,.07-.08,.12-.19,.15-.3,.38-1.43,.75-2.86,1.13-4.29,.08-.32,.08-.73,.29-.94,.62-.64,.57-1.5,.86-2.23,.6-1.48,.75-3.09,1.55-4.52,.53-.95,.63-2.12,.98-3.18,.28-.84,.63-1.66,.95-2.48,.05-.14,.15-.26,.19-.4,.39-1.5,.76-3.01,1.14-4.51,.06-.25,.09-.53,.23-.74,.99-1.54,1.17-3.35,1.69-5.04,.23-.76,.38-.97,1.21-1.05,.37-.03,.74-.02,1.12-.02,7,0,14,0,21,0,.56,0,1.12-.05,1.67-.04,.73,0,1.06,.32,.97,1.03-.05,.42-.28,.83-.46,1.22-.11,.23-.35,.41-.42,.65-.36,1.29-.74,2.57-.99,3.88-.12,.63-.22,1.2-.59,1.76-.3,.44-.4,1.02-.57,1.54-.07,.21-.02,.47-.13,.65-.57,.95-.81,1.99-.88,3.08-.01,.17-.08,.39-.2,.51-.65,.65-.67,1.54-.98,2.32-.56,1.44-.69,3-1.48,4.4-.65,1.15-.75,2.62-1.13,3.93-.15,.52-.42,1.01-.6,1.52-.21,.59-.4,1.18-.59,1.78-.18,.56-.36,1.12-.51,1.69-.15,.57-.35,1.14-.39,1.72-.05,.61,.26,.87,.87,.93,.18,.02,.37,0,.56,0,10.91,0,21.82,0,32.74,0,.34,0,.69,.06,1-.03,.3-.08,.63-.26,.8-.5,.3-.42,.6-.89,.71-1.38,.32-1.48,1.07-2.84,1.21-4.38,.04-.42,.35-.8,.52-1.21,.21-.55,.41-1.1,.6-1.66,.13-.39,.21-.79,.31-1.18,.13-.47,.35-.93,.37-1.4,.03-.79,.24-1.42,.8-2.01,.26-.27,.31-.74,.43-1.12,.19-.64,.35-1.28,.53-1.92,.12-.43,.27-.85,.36-1.29,.13-.66,.26-1.31,.75-1.83,.12-.13,.2-.32,.24-.5,.31-1.22,.6-2.45,.89-3.67,.04-.18,.04-.39,.14-.54,.78-1.13,1.08-2.43,1.42-3.72,.17-.65,.33-1.3,.52-1.93,.15-.49,.3-1,.55-1.45,.35-.61,.88-.9,1.66-.9,7.04,.03,14.08,.03,21.12,.03,.56,0,1.11-.06,1.67-.09,.67-.03,1.05,.2,1.07,.84,.04,1.06,.21,2.15-.71,3.04-.3,.29-.33,.87-.47,1.33-.17,.56-.36,1.12-.46,1.7-.29,1.62-1.12,3.04-1.63,4.58-.5,1.51-.99,3.03-1.49,4.54-.08,.25-.16,.49-.24,.74-.56,1.77-1.06,3.55-1.69,5.29-.56,1.54-.99,3.09-1.23,4.7-.06,.39-.27,.75-.44,1.11-.1,.2-.32,.34-.39,.54-.45,1.37-.92,2.73-1.27,4.12-.17,.69-.23,1.38-.7,1.96-.18,.22-.29,.52-.36,.81-.32,1.18-.62,2.37-.93,3.55-.05,.18-.11,.35-.18,.53-.52,1.39-1.05,2.77-1.55,4.17-.12,.34-.14,.73-.23,1.08-.11,.43-.15,.91-.38,1.27-.41,.64-.73,1.27-.73,2.06,0,.23-.19,.46-.31,.69-.2,.38-.42,.75-.62,1.13-.05,.1-.08,.27-.15,.29-.95,.26-.98,1.2-1.41,1.85-.51,.77-1.04,1.51-1.56,2.27-.21,.31-.39,.63-.62,.93-.26,.34-.56,.65-.85,.97-.07,.08-.19,.13-.25,.22-.45,.63-.95,1.22-1.32,1.9-.72,1.3-1.71,2.38-2.62,3.53-.73,.93-1.4,1.91-2.15,2.83-.91,1.11-1.87,2.17-2.8,3.26-.31,.37-.56,.79-.87,1.15-.29,.33-.63,.61-.94,.91-.16,.15-.39,.28-.45,.46-.31,.84-.96,1.39-1.59,1.97-.73,.68-1.38,1.45-2.06,2.19-1.03,1.12-2.02,2.27-3.07,3.36-1,1.04-2.05,2.02-3.07,3.02-.13,.13-.32,.22-.41,.37-.73,1.19-1.85,1.32-3.11,1.27-1.79-.06-3.57-.01-5.36,0-.22,0-.45,.02-.67-.02-.59-.1-.77-.37-.61-.94,.11-.39,.28-.77,.4-1.16,.23-.78,.37-1.59,.65-2.36,.54-1.48,1.16-2.93,1.74-4.39,.08-.21,.23-.39,.28-.6,.36-1.43,.71-2.87,1.06-4.31,.04-.18,.06-.38,.16-.53,1.15-1.67,1.29-3.66,1.81-5.53,.06-.21,.15-.42,.23-.63,.59-1.72,1.18-3.43,1.76-5.15,.05-.14,.05-.3,.12-.43,.97-1.79,1.37-3.75,1.81-5.71,.05-.21,.22-.38,.33-.57,.33-.59,.22-1-.4-1.23-.34-.13-.73-.17-1.09-.17-10.99,0-21.97,0-32.96,0-.3,0-.59,.03-.89,.05-.63,.05-1,.34-1.14,1.01-.23,1.09-.55,2.15-.84,3.22-.03,.11-.03,.24-.1,.32-.71,.86-.9,1.91-1.19,2.95-.25,.93-.58,1.83-.63,2.81-.02,.34-.18,.76-.43,.98-.5,.44-.67,.97-.68,1.58-.02,.65-.17,1.23-.53,1.79-.23,.36-.27,.84-.43,1.26-.22,.59-.47,1.16-.71,1.74-.11,.27-.27,.53-.34,.82-.3,1.23-.58,2.46-.87,3.69-.04,.18-.06,.38-.15,.54-.55,.9-.99,1.82-.98,2.91-1.13,1.25-.71,3.1-1.72,4.41-.16,.21-.16,.57-.21,.86-.04,.22-.02,.45-.05,.67-.24,1.58-.94,2.13-2.52,2.13-7.41-.01-14.82,0-22.23,0-.61,0-1.27,.1-1.87-.57Z"/>
      <path class="cls-2" d="M129.21,54.51c-.3,.75-.78,1.18-1.3,1.61-1.49,1.22-2.95,2.49-4.42,3.73-.97,.81-1.96,1.59-2.92,2.41-.98,.85-1.94,1.69-3.06,2.37-.87,.53-1.55,1.37-2.33,2.05-1.11,.97-2.24,1.92-3.36,2.88-.7,.6-1.44,1.18-2.1,1.83-1.16,1.15-2.57,2.01-3.78,3.08-.89,.79-1.89,1.46-2.68,2.43-.78,.96-1.94,1.6-2.94,2.37-.35,.27-.72,.53-1.06,.81-1.85,1.55-3.69,3.11-5.53,4.68-.42,.36-.8,.77-1.2,1.17-.18,.18-.33,.43-.55,.55-2.05,1.1-3.5,2.95-5.37,4.28-1.02,.72-1.87,1.68-2.81,2.52-.3,.27-.65,.49-.98,.72-.85,.58-1.08,1.37-.67,2.3,.36,.8,.41,1.76,1.25,2.29,.05,1.06,.95,1.73,1.23,2.69,.03,.11,.05,.24,.12,.31,1.02,1.1,1.27,2.57,1.88,3.87,.09,.2,.25,.36,.36,.55,.21,.38,.41,.76,.61,1.15,.18,.36,.35,.73,.54,1.09,.05,.1,.15,.17,.19,.27,.45,.92,.91,1.84,1.35,2.76,.67,1.4,1.14,2.95,2.05,4.17,.94,1.26,1.38,2.67,2.02,4.04,.43,.93,1.01,1.79,1.48,2.71,.53,1.05,.98,2.14,1.5,3.19,.47,.95,1.01,1.87,1.48,2.82,.46,.93,.85,1.89,1.3,2.83,.21,.43,.5,.81,.72,1.23,.4,.79,.79,1.58,1.14,2.39,.23,.55,.38,1.1,.93,1.47,.37,.25,.23,.7-.22,.83-.17,.05-.37,.04-.55,.04-8.12,0-16.24-.02-24.35-.03-.33,0-.67,.01-1-.02-.64-.05-1.12-.36-1.42-.94-.26-.5-.57-.97-.75-1.49-.25-.71-.6-1.29-1.09-1.88-.52-.62-.69-1.54-1.01-2.32-.08-.2-.07-.55-.21-.61-.95-.44-.99-1.43-1.35-2.2-.8-1.69-1.83-3.25-2.61-4.97-.74-1.64-1.76-3.16-2.65-4.74-.13-.22-.18-.48-.3-.71-.18-.36-.39-.7-.57-1.06-.15-.29-.28-.58-.41-.88-.06-.13-.03-.35-.12-.42-.69-.53-.8-1.42-1.26-2.04-.5-.67-.86-1.37-1.18-2.12-.75-1.76-1.91-3.31-2.57-5.13-.24-.67-.76-1.26-1.25-1.81-.21-.24-.66-.36-1-.37-1.53-.04-3.05-.05-4.58-.02-.3,0-.74,.13-.88,.35-.46,.71-.92,1.45-1.19,2.25-.46,1.37-.6,2.87-1.19,4.17-.51,1.12-.8,2.27-1.15,3.43-.26,.85-.67,1.65-.7,2.56,0,.21-.06,.48-.2,.63-.7,.76-.64,1.81-1.02,2.64-.66,1.43-.61,3.07-1.53,4.39-.2,.28-.17,.72-.28,1.07-.16,.53-.35,1.05-.53,1.57-.12,.35-.27,.69-.33,1.05-.14,.77-.46,1.45-.77,2.17-.56,1.28-.93,2.67-1.14,4.05-.17,1.12-.89,1.95-1.21,2.97-.14,.44-.62,.43-1.05,.43-7.56-.02-15.12-.02-22.68-.03-.41,0-.82,.04-1.23,.02-.85-.05-1.09-.48-.58-1.15,.48-.63,.66-1.32,.69-2.08,.03-.58,.16-1.09,.61-1.51,.18-.17,.33-.42,.39-.66,.34-1.37,.64-2.74,.96-4.11,.04-.18,.03-.41,.14-.53,1.05-1.12,.86-2.74,1.63-3.98,.18-.3,.23-.71,.26-1.07,.05-.69,.19-1.29,.73-1.81,.24-.23,.31-.66,.39-1.01,.3-1.26,.33-2.65,.91-3.77,.7-1.34,.83-2.84,1.51-4.17,.26-.51,.29-1.14,.35-1.73,.06-.53,.2-.96,.6-1.38,.32-.35,.48-.89,.6-1.37,.41-1.65,.67-3.34,1.53-4.84,.16-.29,.28-.61,.37-.93,.33-1.22,.64-2.44,.95-3.66,.02-.07,.02-.16,.06-.21,.84-1.14,.92-2.56,1.4-3.83,.08-.21,.2-.41,.22-.63,.13-1.2,.57-2.28,1.23-3.29,.13-.2,.18-.49,.18-.75,.01-.65,.13-1.23,.48-1.8,.2-.32,.17-.79,.19-1.19,.04-.61,.17-1.13,.6-1.62,.32-.36,.44-.91,.61-1.4,.23-.66,.41-1.34,.61-2.01,.09-.28,.23-.57,.24-.85,.05-.85,.28-1.6,.87-2.24,.14-.15,.26-.39,.27-.59,.17-2.04,1.03-3.86,1.73-5.74,.37-1,.53-2.09,1.26-2.94,.07-.08,.1-.2,.12-.31,.29-1.38,.57-2.76,.88-4.13,.07-.31,.16-.7,.39-.89,.55-.46,.59-1.07,.71-1.7,.11-.57,.32-1.12,.51-1.68,.06-.17,.22-.33,.23-.5,.09-1.29,.67-2.39,1.24-3.5,.38-.73,.47-.9,1.32-.93,.48-.02,.97,0,1.45,0,7.26,0,14.52-.01,21.78-.02,1.05,0,1.33,.45,.96,1.41-.22,.58-.38,1.19-.58,1.79-.16,.49-.36,.97-.52,1.47-.21,.63-.41,1.26-.61,1.9-.11,.35-.12,.76-.3,1.06-.41,.69-.7,1.39-.69,2.21,0,.14-.04,.31-.12,.43-.58,.89-.88,1.87-1,2.92-.02,.17-.11,.38-.24,.5-.7,.63-.69,1.51-.96,2.32-.49,1.51-.59,3.15-1.55,4.5-.13,.18-.21,.4-.26,.61-.28,1.11-.55,2.23-.82,3.35-.03,.11-.02,.23-.08,.32-.74,1.27-1.02,2.7-1.44,4.08-.28,.92-.59,1.83-.87,2.75-.13,.43,.06,.73,.47,.87,.14,.05,.29,.09,.44,.09,1.71,0,3.43,.03,5.14-.02,.41-.01,.96-.21,1.18-.51,.96-1.29,2.44-1.94,3.57-3.01,.99-.94,2.17-1.64,3.12-2.65,.8-.85,1.84-1.47,2.76-2.21,.91-.74,1.8-1.51,2.69-2.28,.22-.19,.39-.46,.63-.63,.98-.72,1.98-1.4,2.95-2.14,.85-.65,1.73-1.29,2.48-2.06,.99-1.02,2.12-1.84,3.26-2.68,1.22-.89,2.3-1.98,3.47-2.94,1.29-1.05,2.65-2.03,3.94-3.07,1.15-.93,2.27-1.91,3.4-2.86,.48-.4,.96-.82,1.45-1.2,1.11-.86,2.23-1.7,3.34-2.56,.2-.16,.4-.34,.55-.55,.64-.92,1.58-1.19,2.63-1.19,7.67,0,15.34,0,23.01,.01,.73,0,1.47,0,2.33,0Z"/>
      <path class="cls-1" d="M190.87,135.21c.6-.68,1.08-1.28,1.62-1.8,.31-.3,.79-.41,1.12-.69,.99-.84,1.94-1.72,2.91-2.57,.75-.65,1.54-1.26,2.27-1.94,.92-.85,1.8-1.75,2.71-2.61,.59-.56,1.21-1.09,1.79-1.66,1.08-1.06,2.17-2.12,3.22-3.22,1.3-1.37,2.62-2.73,3.81-4.19,1.15-1.4,2.51-2.61,3.53-4.13,.71-1.06,1.71-1.93,2.58-2.88,.05-.05,.13-.1,.15-.16,.56-1.72,2.12-2.72,3.01-4.22,.71-1.19,1.68-2.23,2.53-3.34,.2-.26,.35-.57,.56-.83,.57-.69,.64-1.77,1.63-2.15,.13-.05,.19-.3,.27-.46,.34-.69,.57-1.48,1.05-2.05,.78-.93,1.26-1.99,1.83-3.03,.44-.8,1.03-1.53,1.5-2.31,.57-.94,1.08-1.92,1.63-2.87,.15-.25,.36-.46,.54-.7,.16-.2,.36-.39,.45-.62,.35-.81,.65-1.64,.98-2.46,.05-.14,.09-.31,.2-.4,1.18-.93,1.22-2.41,1.77-3.64,.07-.17,.08-.38,.19-.52,1.03-1.26,1.28-2.89,2.01-4.27,.87-1.64,1.33-3.37,1.79-5.13,.07-.28,.26-.53,.38-.8,.15-.34,.36-.66,.44-1.02,.29-1.22,.63-2.42,.97-3.62,.39-1.37,.49-2.81,1.09-4.15,.2-.45,.19-1.02,.2-1.54,.02-1.05,.12-2.07,.55-3.05,.16-.36,.13-.8,.16-1.2,.11-1.3,.24-2.59,.29-3.89,.09-2.45,.31-4.9-.14-7.34-.15-.83-.07-1.71-.16-2.56-.09-.81-.27-1.6-.4-2.4-.1-.62-.23-1.24-.29-1.86-.07-.75-.18-1.46-.7-2.07-.22-.26-.34-.66-.36-1.01-.05-.8-.18-1.54-.63-2.22-.14-.21-.24-.48-.26-.72-.04-.63-.37-1.09-.7-1.6-.44-.67-.84-1.41-1.08-2.18-.34-1.07-1.14-1.81-1.72-2.71-.69-1.08-1.5-2.08-2.3-3.08-.41-.52-.96-.92-1.37-1.44-1.33-1.68-3.06-2.88-4.75-4.14-1.66-1.24-3.31-2.52-5.12-3.51-1.6-.88-3.12-2.03-5.03-2.29-.14-.02-.31-.05-.42-.14-1.16-.96-2.6-1.22-3.97-1.65-.49-.15-.93-.47-1.42-.62-1.13-.35-2.27-.7-3.43-.94-2.62-.55-5.23-1.11-7.87-1.53-2.38-.38-4.79-.59-7.19-.88-.26-.03-.52-.05-.77-.1-.1-.02-.18-.11-.44-.27,.39-.25,.68-.54,1.03-.64,.53-.15,1.1-.14,1.65-.23,.76-.13,1.52-.3,2.27-.47,.14-.03,.28-.13,.42-.14,2.56-.12,4.97-1.27,7.59-1.02,.43,.04,.91-.01,1.32-.15,1.33-.46,2.7-.47,4.08-.55,1.48-.09,2.95-.32,4.43-.48,.48-.05,.96-.15,1.44-.15,4.21,0,8.41,.02,12.62,.03,.19,0,.37,0,.56,.02,2.68,.4,5.35,.81,8.03,1.21,.55,.08,1.11,.1,1.67,.15,.84,.07,1.73-.01,2.42,.65,.05,.05,.13,.07,.2,.08,1.41,.3,2.81,.6,4.22,.9,.29,.06,.6,.09,.86,.21,1.06,.52,2.1,1.09,3.16,1.59,1.77,.84,3.57,1.61,5.31,2.49,.75,.38,1.39,.97,2.08,1.46,.36,.26,.72,.54,1.11,.74,1.37,.69,2.57,1.6,3.63,2.7,.18,.19,.41,.32,.62,.47,.76,.55,1.45,1.16,1.83,2.05,.09,.2,.21,.45,.38,.53,.92,.42,1.18,1.4,1.8,2.06,1.28,1.37,1.8,3.21,2.84,4.74,.42,.62,.61,1.43,.84,2.17,.59,1.97,1.66,3.8,1.61,5.96-.01,.61,.26,1.23,.4,1.84,.06,.25,.16,.5,.17,.76,.06,2.64,.1,5.28,.14,7.92,0,.07,0,.16-.02,.22-.76,1.94-.65,4.02-1.03,6.02-.1,.5-.32,.98-.47,1.48-.18,.6-.34,1.21-.5,1.81-.09,.36-.15,.72-.26,1.08-.25,.81-.51,1.63-.8,2.43-.32,.9-.69,1.78-1.02,2.68-.22,.59-.43,1.18-.64,1.78-.06,.18-.07,.39-.19,.52-.82,.95-1.1,2.18-1.61,3.27-.74,1.6-1.96,2.96-2.32,4.74-.03,.17-.15,.36-.28,.47-.84,.72-1.23,1.74-1.76,2.67-.05,.1-.07,.26-.15,.29-.93,.38-1,1.31-1.34,2.06-.27,.6-.67,1.09-1.12,1.6-.95,1.07-1.67,2.33-2.48,3.52-.1,.15-.15,.35-.28,.48-1.41,1.52-2.57,3.22-3.78,4.9-.62,.87-1.39,1.63-2.06,2.46-.65,.8-1.23,1.65-1.9,2.44-.57,.67-1.22,1.28-1.83,1.92-1.36,1.46-2.69,2.96-4.09,4.39-1.5,1.54-3.05,3.02-4.6,4.52-1.73,1.68-3.46,3.36-5.23,4.99-1.01,.93-2.11,1.75-3.16,2.62-.14,.12-.28,.25-.42,.37-2.03,1.73-4.12,3.38-6.06,5.2-1.36,1.28-2.83,2.39-4.27,3.57-.23,.19-.47,.36-.71,.53-.72,.51-1.42,1.04-2.06,1.67-.78,.77-1.79,1.31-2.67,1.98-1.79,1.37-3.51,2.85-5.38,4.1-.91,.61-1.73,1.32-2.61,1.95-1.24,.87-2.62,1.52-3.85,2.4-1.73,1.25-3.47,2.49-5.29,3.61-.98,.6-1.84,1.37-2.77,2.04-.78,.56-1.57,1.1-2.38,1.61-.15,.1-.39,.04-.62,.06Z"/>
      <path class="cls-2" d="M127.07,178.3c.08-.13,.11-.28,.18-.31,.81-.34,1.71-.53,2.43-1.01,1.39-.93,3.19-.99,4.44-2.23,.39-.39,1.07-.48,1.6-.75,.89-.45,1.76-.95,2.66-1.4,1.16-.57,2.35-1.09,3.51-1.65,.63-.31,1.23-.68,1.84-1.03,.39-.22,.77-.45,1.15-.68,.54-.32,1.06-.68,1.62-.96,.6-.29,1.25-.47,1.84-.76,1.28-.63,2.54-1.3,3.8-1.97,2.03-1.08,4.05-2.16,6.07-3.26,1.07-.58,2.12-1.2,3.19-1.79,.71-.39,1.44-.76,2.16-1.14,1.76-.94,3.52-1.89,5.29-2.83,.23-.12,.45-.26,.69-.35,1.38-.51,1.56-1,1.2-2.92-.2,.13-.39,.21-.52,.35-.38,.41-.71,.86-1.1,1.26-.59,.63-1.38,.8-2.15,.55-.8-.26-1.17-.93-1.3-1.78-.54-3.57,1.95-7.85,4.68-9.08,.73-.33,1.34-.51,2.06,.06,.57,.46,.83,.32,1.04-.37,.25-.82,.46-1.65,.73-2.46,.17-.53,.22-.96-.22-1.43-.43-.45-.32-.84,.29-.98,.86-.21,1.76-.33,2.64-.36,.57-.02,.57,.51,.45,.92-.28,1-.6,1.99-.89,2.99-.62,2.14-1.24,4.28-1.86,6.42-.3,1.03-.63,2.05-.91,3.09-.06,.22,0,.48,.02,.73,.27-.01,.59,.06,.81-.05,2.24-1.18,4.48-2.38,6.69-3.61,.65-.36,1.2-.87,1.85-1.24,1.74-.99,3.51-1.91,5.24-2.92,1.21-.71,2.35-1.55,3.56-2.28,1.1-.67,2.25-1.26,3.37-1.9,.52-.29,1.08-.54,1.52-.92,.98-.85,2.2-1.3,3.22-2.12,1.08-.87,2.39-1.45,3.6-2.16,.54-.32,1.09-.63,1.62-.95,.32-.19,.62-.41,.93-.6,.22-.14,.5-.21,.68-.38,1.54-1.48,3.54-2.24,5.27-3.42,.03-.02,.07-.03,.1-.05,1.62-1.35,3.65-2.13,5.08-3.73,.15-.16,.33-.32,.53-.39,1.97-.76,3.52-2.17,5.19-3.37,.96-.69,1.96-1.32,2.94-1.98,.21-.14,.42-.29,.62-.46,.2-.16,.37-.37,.58-.52,1.34-.92,2.69-1.83,4.03-2.75,.18-.12,.31-.31,.49-.44,.47-.35,.95-.69,1.43-1.03,.9-.65,1.79-1.3,2.68-1.95,.18-.13,.32-.33,.51-.43,.8-.45,1.52-.91,2.14-1.68,.63-.77,1.7-1.16,2.47-1.84,1.09-.94,2.36-1.65,3.32-2.77,.52-.61,1.26-1.01,1.9-1.52,1.04-.83,2.09-1.66,3.11-2.5,.66-.54,1.3-1.1,1.94-1.67,.99-.89,1.98-1.78,2.96-2.69,1.52-1.41,3.01-2.85,4.53-4.26,.3-.27,.68-.45,1-.7,.35-.27,.7-.55,1.02-.86,1.08-1.06,2.15-2.14,3.22-3.21,.16-.16,.3-.33,.45-.49,1.06-1.18,2.03-2.47,3.21-3.52,1.28-1.15,2.25-2.54,3.42-3.77,.86-.91,1.43-2.13,2.38-2.91,1.26-1.04,1.86-2.52,2.95-3.67,1.15-1.21,1.83-2.87,2.96-4.11,1.04-1.14,1.49-2.64,2.55-3.74,.37-.38,.54-.96,.79-1.45,.79-1.52,1.82-2.89,2.48-4.49,.46-1.11,1.22-2.1,1.84-3.14,.08-.13,.23-.24,.24-.37,.13-1.15,1.07-2.04,1.03-3.25,0-.27,.11-.63,.3-.81,.55-.5,.64-1.14,.74-1.81,.05-.33,.08-.7,.26-.95,.53-.78,.62-1.66,.72-2.55,.08-.68,.23-1.3,.64-1.87,.23-.32,.38-.74,.42-1.13,.19-1.85,.32-3.7,.49-5.56,.26-2.91,.05-5.8-.3-8.69-.06-.52-.13-1.04-.13-1.56,0-.92-.17-1.77-.76-2.51-.15-.2-.31-.47-.29-.71,.08-1.52-1.08-2.69-1.11-4.17,0-.07-.03-.16-.08-.21-1.05-1.05-1.08-2.58-1.76-3.8-.18-.32-.42-.59-.64-.89-.15-.21-.32-.4-.47-.61-.25-.35-.5-.7-.72-1.07-.08-.13-.07-.32-.1-.48,.16,0,.38-.07,.48,.01,1.36,1.03,2.32,2.43,3.34,3.77,.29,.38,.63,.74,.9,1.13,.63,.91,1.19,1.88,1.87,2.75,.49,.64,1.03,1.23,1.4,1.95,.2,.39,.45,.76,.66,1.14,.09,.16,.1,.39,.23,.5,1.09,.95,1.44,2.27,1.86,3.56,.02,.07,.04,.15,.09,.2,1.17,1.29,1.48,2.94,1.94,4.53,.02,.07,.03,.15,.07,.21,1.06,1.48,1.04,3.31,1.62,4.95,.02,.07,.05,.14,.06,.22,.45,3.72,1.42,7.38,1.17,11.18-.15,2.27-.3,4.53-.86,6.74-.05,.18-.12,.37-.11,.55,.07,1.63-.5,3.15-.81,4.71-.19,.97-.64,1.89-.98,2.83-.04,.1-.12,.19-.15,.3-.34,1.24-.68,2.49-1.01,3.74-.06,.21-.08,.47-.21,.63-.97,1.13-1.22,2.59-1.8,3.9-.03,.07-.03,.16-.08,.21-1.01,1.08-1.2,2.64-2.06,3.76-1.29,1.68-1.94,3.73-3.33,5.35-.85,.99-1.36,2.27-2.13,3.34-.69,.94-1.53,1.77-2.3,2.66-.15,.17-.28,.35-.4,.53-1.38,2.2-3.19,4.07-4.79,6.11-1.16,1.47-2.49,2.81-3.86,4.09-.74,.69-1.44,1.36-2,2.21-.34,.51-.88,.88-1.34,1.3-1.42,1.31-2.82,2.63-4.26,3.92-.94,.84-1.94,1.61-2.89,2.44-.5,.44-.94,.94-1.41,1.42-.13,.13-.21,.32-.35,.43-1.6,1.18-3.22,2.33-4.8,3.54-1.15,.88-2.23,1.83-3.34,2.76-.14,.12-.27,.27-.43,.35-1.65,.79-3.06,1.95-4.49,3.06-1.95,1.53-3.98,2.93-6.2,4.06-.26,.13-.48,.35-.71,.53-1.12,.84-2.32,1.55-3.48,2.31-1.23,.82-2.47,1.63-3.74,2.38-1.43,.84-3,1.51-4.28,2.53-1.3,1.04-3.02,1.24-4.24,2.39-.46,.43-1.19,.57-1.77,.89-.49,.26-.93,.61-1.41,.89-.41,.24-.84,.46-1.26,.67-.13,.07-.32,.07-.41,.16-1.19,1.25-2.95,1.44-4.36,2.34-.94,.6-2.04,1.02-3.04,1.58-1.13,.64-2.27,1.25-3.41,1.85-.43,.23-.88,.41-1.32,.6-1.22,.54-2.46,1.04-3.66,1.6-.97,.45-1.91,.96-2.86,1.45-.2,.1-.38,.24-.58,.33-1.25,.55-2.53,1.07-3.77,1.66-1.03,.49-2,1.11-3.02,1.6-.73,.35-1.52,.59-2.28,.87-.24,.09-.54,.11-.73,.26-1.4,1.17-3.22,1.47-4.79,2.3-1.7,.9-3.51,1.6-5.31,2.28-2.08,.77-4.06,1.76-6.12,2.56-2.2,.86-4.47,1.55-6.69,2.37-.83,.3-1.58,.8-2.41,1.13-1.59,.63-3.2,1.19-4.8,1.81-1.03,.4-2.03,.86-3.06,1.25-.72,.27-1.48,.44-2.21,.7-1.75,.61-3.51,1.2-5.23,1.87-.86,.33-1.65,.77-2.55,1.05-1.51,.47-2.97,1.11-4.53,1.46-1.04,.23-2.02,.7-3.04,1.04-.81,.27-1.64,.48-2.44,.77-.98,.35-1.93,.76-2.9,1.12-1.01,.37-2.01,.82-3.05,1.02-.72,.14-1.29,.54-1.93,.77-.87,.31-1.79,.45-2.68,.71-.64,.19-1.25,.45-1.87,.69-.55,.22-1.09,.47-1.62-.1Zm41.33-26.08c.12,.22,.22,.65,.49,.87,.41,.32,.87,.07,1.2-.24,.29-.28,.56-.6,.74-.96,.43-.82,.85-1.65,1.17-2.51,.32-.86,.55-1.76,.75-2.67,.12-.57-.35-1.52-.74-1.61-.58-.13-.86,.34-1.17,.69-1,1.11-1.36,2.53-1.81,3.89-.26,.77-.38,1.57-.61,2.56Z"/>
      <path class="cls-2" d="M85.04,56.14c-.33-.68-.21-1.08,.26-1.19,.56-.13,.91-.46,1.23-.88,.04-.06,.1-.11,.16-.15,1.32-.95,2.65-1.91,3.97-2.86,.75-.54,1.57-1.01,2.25-1.63,1.5-1.37,3.35-2.19,4.97-3.37,1.11-.8,2.19-1.65,3.34-2.38,1.34-.85,2.76-1.59,4.12-2.41,.79-.48,1.54-1.04,2.32-1.54,.62-.4,1.26-.77,1.91-1.12,1.39-.76,2.79-1.51,4.2-2.25,.91-.48,1.85-.91,2.77-1.39,.29-.15,.53-.4,.8-.59,.27-.19,.53-.48,.83-.53,1.52-.25,2.64-1.33,4.02-1.88,1.37-.54,2.69-1.2,4.03-1.81,.14-.06,.3-.09,.41-.18,1.43-1.32,3.34-1.74,5.06-2.38,2.18-.82,4.16-2.16,6.51-2.54,.18-.03,.37-.1,.52-.21,1.36-.93,2.98-1.27,4.46-1.92,1.47-.66,3.03-.84,4.51-1.38,1.04-.38,2.1-.71,3.17-1.03,1.74-.52,3.48-1.01,5.22-1.52,1.17-.34,2.34-.7,3.53-1.01,.75-.2,1.52-.34,2.28-.5,.14-.03,.3-.02,.44-.05,1.23-.27,2.46-.55,3.69-.83,3.2-.72,6.42-1.21,9.7-1.36,2.07-.09,4.14-.48,6.21-.58,2.08-.1,4.17-.1,6.25,.01,2.34,.12,4.67,.36,6.99,.64,1.47,.18,2.98,.37,4.37,.84,1.58,.54,3.21,.89,4.78,1.44,.93,.33,1.75,1,2.69,1.27,1.19,.33,2.01,1.22,3.08,1.71,1.12,.52,2.07,1.41,3.1,2.14,.79,.56,1.55,1.15,2,2.05,1.63,.97,2.34,2.73,3.41,4.16,1.07,1.44,2.06,3,2.56,4.78,.05,.18,.07,.39,.19,.52,1.06,1.25,1.09,2.89,1.62,4.34,.32,.89,.29,1.9,.46,2.85,.08,.43,.17,.9,.4,1.25,.41,.63,.55,1.29,.57,2.01,.04,1.82,.07,3.65,.09,5.47,0,.19,.04,.41-.04,.55-.13,.23-.35,.4-.53,.6-.2-.19-.57-.37-.57-.57-.03-.95-.5-1.73-.98-2.46-.64-.98-1.37-1.93-2.16-2.8-1.1-1.2-2.28-2.32-3.44-3.46-.21-.2-.49-.32-.74-.48-.28-.18-.6-.31-.85-.53-1.61-1.4-3.43-2.46-5.38-3.29-.81-.35-1.57-.84-2.39-1.13-1.9-.67-3.7-1.65-5.72-1.99-.22-.04-.45-.09-.64-.2-1.58-.95-3.39-1.05-5.12-1.43-1.92-.43-3.85-.79-5.78-1.18-.18-.04-.36-.08-.55-.1-5.96-.51-11.9-1.4-17.91-1.14-3.2,.14-6.4,.2-9.6,.32-.55,.02-1.1,.18-1.65,.25-.92,.12-1.84,.29-2.76,.34-1.93,.09-3.85,.2-5.77,.55-2.37,.43-4.78,.65-7.17,1-1.03,.15-2.04,.39-3.07,.58-.8,.15-1.63,.2-2.39,.47-2.04,.72-4.2,.88-6.28,1.44-.18,.05-.39,.02-.55,.1-1.76,.97-3.8,.85-5.66,1.45-.88,.29-1.78,.53-2.65,.82-2.68,.89-5.42,1.64-8.01,2.73-1.77,.74-3.59,1.29-5.38,1.96-2.12,.8-4.2,1.67-6.25,2.62-1.95,.9-3.85,1.9-5.78,2.86-1.12,.56-2.28,1.05-3.37,1.67-2.1,1.19-4.2,2.38-6.21,3.71-.83,.55-1.7,.99-2.53,1.52-.25,.16-.44,.39-.67,.57-.24,.2-.5,.37-.86,.63Z"/>
      <path class="cls-2" d="M129.21,139.39c-.08,.13-.13,.28-.2,.3-1.1,.27-1.29,1.21-1.39,2.07-.25,2.21-.39,4.44-.57,6.66,0,.1,.06,.21,.1,.36,.5,.01,.7-.38,.92-.69,1-1.39,1.95-2.81,2.96-4.19,.69-.94,.73-2.03,.66-3.09-.03-.47-.54-.91-.86-1.42,.53-.63,1.23-.17,1.83-.23,.63-.06,1.27-.04,1.9-.01,.63,.02,1.32-.33,1.91,.22-.07,.13-.11,.29-.18,.31-1.14,.33-1.4,1.29-1.5,2.25-.23,2.18-.36,4.37-.53,6.55,0,.06,.05,.13,.1,.25,.43,.08,.65-.23,.85-.53,1.46-2.11,2.91-4.22,4.36-6.33,.13-.18,.22-.39,.34-.57,.34-.51,.3-.97-.18-1.38-.16-.14-.28-.32-.41-.47,.3-.53,.74-.33,1.13-.33,.45-.01,.89-.01,1.34-.02,.39,0,.82-.13,1.09,.26-.03,.11-.02,.22-.06,.25-1.49,1.02-2.28,2.61-3.27,4.04-1.9,2.75-3.83,5.49-5.73,8.24-.68,.98-1.31,1.98-1.99,2.96-.18,.25-.44,.45-.86,.87-.13-.58-.29-.92-.27-1.23,.18-2.41,.41-4.82,.61-7.22,.05-.54,.28-1.09-.17-1.77-.3,.34-.59,.6-.8,.91-1.89,2.76-3.76,5.53-5.64,8.3-.22,.32-.36,.85-.88,.67-.5-.17-.34-.68-.31-1.08,.32-4.19,.63-8.38,1-12.57,.08-.94-.2-1.65-.9-2.26,.56-.69,1.22-.26,1.8-.31,.67-.05,1.34-.03,2.01-.02,.59,.01,1.24-.31,1.79,.24Z"/>
      <path class="cls-2" d="M62.31,155.83c.23-1-.76-1.68-.28-2.61,.41-.81,1.07-1.3,1.94-1.73-.15-.24-.24-.49-.41-.64-2.1-1.73-1.19-4.34,.4-5.45,1.15-.8,2.42-1.31,3.87-1.17,.26,.03,.55,.02,.76,.14,1.01,.61,2.1,.71,3.23,.58,.84-.1,.97,.69,.65,1.21-.1,.16-.35,.29-.54,.32-.57,.09-.76,.41-.68,.94,.39,2.47-1.97,4.21-4.08,4.35-.52,.03-1.04-.04-1.56-.04-.3,0-.6,0-.89,.05-.4,.07-.58,.4-.5,.74,.06,.24,.3,.54,.52,.61,.95,.29,1.93,.51,2.89,.76,2.46,.65,3.14,3.11,1.7,4.86-.68,.83-1.51,1.46-2.62,1.54-1.4,.11-2.82,.41-4.2-.07-.55-.19-1.11-.41-1.61-.71-.62-.38-1.16-.94-1.02-1.72,.14-.8,.72-1.37,1.48-1.69,.3-.13,.63-.19,.96-.29Zm2.75,4.06c.69-.26,1.38-.43,1.97-.77,.84-.49,.86-1.69,0-2.1-.92-.44-1.94-.7-2.93-.94-.75-.18-1.32,.13-1.75,.84-.56,.93-.48,1.75,.47,2.23,.68,.34,1.45,.49,2.23,.74Zm-.15-10.45c.01,.71,.4,1.33,.85,1.49,.49,.18,1.16-.07,1.56-.59,.76-1,1-2.22,1.32-3.39,.23-.82-.08-1.48-.71-1.8-.48-.25-1.05-.04-1.63,.63-.94,1.1-.99,2.52-1.39,3.66Z"/>
      <path class="cls-2" d="M101.44,153.23c.82,.43,.83-.5,1.45-.68,0,.26,.11,.55,0,.66-.6,.66-1.22,1.3-1.87,1.89-.2,.18-.54,.25-.82,.27-1.35,.12-1.99-.53-1.73-1.87,.21-1.09,.56-2.15,.89-3.22,.26-.85,.59-1.68,.88-2.52,.04-.1,.09-.23,.07-.32-.06-.24-.09-.57-.26-.67-.16-.09-.54,0-.68,.14-.73,.74-1.51,1.45-2.09,2.3-1,1.47-1.77,3.07-2.12,4.86-.27,1.37-1.16,1.67-2.87,1.02,.11-.55,.19-1.13,.35-1.69,.82-2.93,1.66-5.86,2.49-8.8,.22-.78,.48-1.56,.67-2.35,.19-.79,.44-1.64-.78-2.19,.46-.31,.75-.63,1.09-.71,.79-.18,1.61-.28,2.42-.34,.49-.04,.7,.33,.53,.97-.24,.94-.54,1.86-.81,2.78-.39,1.36-.8,2.71-1.17,4.07-.09,.34-.1,.7-.15,1.04,.62,.18,.74-.22,.95-.52,.74-1.13,1.61-2.13,2.86-2.73,.59-.28,1.18-.59,1.76-.09,.59,.51,.92,1.19,.72,1.99-.32,1.3-.69,2.58-1.06,3.86-.2,.68-.45,1.34-.64,2.02-.08,.27-.07,.56-.1,.81Z"/>
      <path class="cls-2" d="M41.17,152.65c-.1,1.43-1.25,2.63-2.43,2.84-1.23,.23-1.82-.26-1.83-1.53,0-.2-.05-.4-.09-.69-.66,.22-.91,.74-1.25,1.15-.41,.49-.82,.93-1.51,1.06-1.21,.22-2.12-.39-2.35-1.61-.66-3.58,1.73-8.02,4.84-9.4,.62-.28,1.16-.34,1.75,.14,.57,.46,.92,.3,1.14-.4,.21-.67,.4-1.36,.62-2.03,.22-.68,.51-1.32-.23-1.92-.34-.27-.14-.71,.22-.79,.94-.2,1.9-.37,2.85-.41,.56-.02,.53,.52,.42,.94-.22,.83-.46,1.64-.7,2.46-.87,3.03-1.75,6.07-2.63,9.1-.15,.5-.37,.98-.49,1.48-.05,.21,.1,.46,.16,.7,.21-.09,.46-.14,.63-.28,.31-.24,.58-.54,.87-.81Zm-2.36-6.14c-.09-.26-.16-.51-.27-.74-.41-.84-.74-.92-1.42-.31-.33,.29-.63,.64-.85,1.02-.94,1.59-1.29,3.38-1.75,5.14-.06,.25-.05,.52-.03,.78,.06,.74,.62,1.06,1.24,.63,.44-.31,.85-.74,1.11-1.21,.5-.91,.94-1.86,1.31-2.83,.3-.79,.45-1.64,.67-2.48Z"/>
      <path class="cls-2" d="M80.77,143.24c.12-.58,.19-1.08,.32-1.56,.14-.54,.34-1.06,.48-1.59,.21-.77,.35-.93,1.14-.95,.97-.02,1.94-.01,2.9-.01,2.31,0,4.62,0,6.92,0,1.14,0,1.32,.23,1.05,1.33-.16,.65-.27,1.31-.47,1.94-.1,.31-.35,.58-.53,.87-.09-.02-.19-.03-.28-.05-.08-.34-.17-.67-.24-1.01-.2-.93-.89-1.56-1.81-1.71-.52-.09-.88,.08-1.1,.53-.13,.27-.27,.54-.34,.82-.74,2.8-1.46,5.6-2.19,8.4-.23,.86-.47,1.72-.68,2.59-.29,1.21-.19,1.39,.97,1.96,.09,.04,.14,.15,.25,.28-.12,.11-.22,.27-.32,.28-2.01,.03-4.01,.04-6.02,.03-.18,0-.36-.17-.67-.33,.28-.16,.42-.31,.57-.32,.9-.04,1.31-.65,1.58-1.37,.3-.8,.52-1.63,.75-2.45,.55-1.93,1.08-3.86,1.61-5.79,.37-1.32,.73-2.65,1.09-3.97,.1-.36-.07-.64-.42-.63-.47,0-1,.02-1.41,.22-.9,.45-1.74,1.01-2.2,1.97-.15,.3-.29,.61-.96,.52Z"/>
      <path class="cls-2" d="M12.02,143.17c-.07-.32-.2-.6-.19-.88,.02-.81-.52-1.26-1.1-1.54-1.1-.54-1.76-.38-2.11,.87-.44,1.61-.87,3.22-1.3,4.83-.51,1.93-1.02,3.87-1.54,5.81-.07,.25-.15,.5-.21,.75-.22,.97-.04,1.31,.9,1.71,.13,.06,.25,.13,.41,.21-.15,.59-.62,.48-.98,.48-.97,0-1.93-.04-2.9-.04-.56,0-1.12,.05-1.67,.04-.43-.01-.85-.09-1.27-.14-.02-.08-.03-.16-.05-.24,.19-.11,.37-.31,.57-.32,.71-.05,1.07-.5,1.31-1.07,.28-.65,.52-1.31,.71-1.99,.86-3.11,1.69-6.23,2.53-9.34,.09-.32,.2-.64,.28-.96,.16-.63-.07-.94-.73-.86-1.37,.17-2.41,.9-3.13,2.07-.21,.34-.33,.77-1.01,.59,.08-.43,.13-.86,.23-1.28,.16-.61,.36-1.21,.54-1.81,.22-.77,.38-.92,1.16-.93,3.35-.01,6.69-.02,10.04-.01,.87,0,1.05,.24,.85,1.1-.17,.76-.36,1.52-.56,2.27-.08,.32-.17,.67-.77,.68Z"/>
      <path class="cls-2" d="M58.59,153.63c.57-.41,1.01-.71,1.54-1.1,.01,.25,.11,.5,.02,.59-.53,.61-1.11,1.19-1.67,1.79-.43,.46-.97,.5-1.54,.47-.91-.05-1.44-.59-1.4-1.51,.01-.29,.1-.59,.18-.87,.49-1.67,.99-3.35,1.49-5.02,.04-.14,.14-.28,.14-.42,0-.28-.05-.55-.08-.83-.3,.07-.7,.04-.89,.23-1.68,1.7-3.23,3.5-3.82,5.91-.14,.58-.31,1.15-.51,1.71-.1,.26-.28,.63-.49,.68-.78,.18-1.59,.22-2.46-.12,.13-.65,.21-1.24,.37-1.8,.55-1.92,1.11-3.85,1.71-5.76,.28-.88,.4-1.67-.53-2.2,.14-.54,.55-.52,.9-.59,.72-.15,1.44-.33,2.17-.44,.31-.05,.74-.05,.92,.13,.16,.16,.13,.61,.05,.9-.19,.68-.48,1.32-.7,1.99-.05,.16,0,.35,0,.62,.64-.22,.91-.71,1.22-1.13,.75-1,1.65-1.8,2.8-2.33,1.15-.53,2.24,.02,2.33,1.29,.05,.69-.05,1.41-.24,2.08-.46,1.65-1.01,3.27-1.5,4.91-.06,.19,0,.41,0,.82Z"/>
      <path class="cls-2" d="M25.25,153.49c-.16,.12-.36,.25-.52,.41-.39,.39-.72,.87-1.16,1.2-1.17,.87-2.38,.51-2.98-.81-.32-.7-.47-1.42-.34-2.17,.46-2.68,1.46-5.06,3.65-6.82,.17-.14,.34-.29,.53-.4,1.54-.93,1.79-.91,3.15,.23,.56-.21,1.13-.47,1.73-.63,1.09-.3,1.46,.09,1.15,1.19-.22,.78-.46,1.56-.68,2.34-.43,1.5-.86,3-1.29,4.5-.05,.18-.14,.37-.12,.54,.03,.23,.15,.45,.23,.67,.21-.11,.44-.19,.62-.32,.25-.19,.47-.42,.87-.54-.03,.19,0,.41-.1,.56-.65,1.07-1.45,1.96-2.81,2.11-1.09,.11-1.58-.28-1.67-1.39-.01-.18-.06-.36-.09-.54,0-.03-.06-.04-.18-.13Zm-1.97-1.91c0,.45-.05,.65,.01,.82,.09,.26,.21,.67,.39,.71,.27,.07,.61-.11,.91-.21,.09-.03,.14-.17,.22-.25,1.36-1.47,1.91-3.32,2.39-5.19,.1-.38,.07-.82,0-1.22-.17-.93-.95-1.18-1.62-.54-.24,.23-.49,.48-.63,.78-.82,1.71-1.6,3.43-1.67,5.11Z"/>
      <path class="cls-2" d="M149.52,148.02c-.36,2.57-1.45,4.97-3.93,6.64-1.22,.82-2.48,1.06-3.9,.85-.92-.14-1.46-.7-1.86-1.43-.46-.83-.59-1.72-.44-2.69,.44-2.69,1.75-4.79,4.07-6.23,.56-.35,1.2-.6,1.83-.8,1.88-.59,4.17,.98,4.23,3.67Zm-2.67-.96c0-.43,.08-.69-.02-.86-.23-.4-.48-.85-.85-1.1-.39-.27-.77,.09-1.05,.4-.35,.38-.76,.74-.99,1.19-1.05,1.99-1.63,4.13-1.97,6.34-.13,.84,.2,1.47,.75,1.72,.52,.23,1.05-.04,1.64-.83,1.57-2.09,2.01-4.58,2.48-6.86Z"/>
      <path class="cls-2" d="M113.32,152.57c.06,.24,.11,.34,.08,.38-.85,1.22-1.89,2.2-3.4,2.45-.72,.12-1.48,.16-2.21,.09-1.43-.14-2.37-1.06-2.47-2.51-.06-.87,.02-1.8,.27-2.63,.94-3.06,2.99-5.06,6.07-5.97,.41-.12,.89-.15,1.32-.09,1.28,.17,2,1.36,1.54,2.56-.68,1.77-1.96,2.94-3.75,3.54-.49,.17-1.01,.24-1.51,.38-1,.28-1.33,1.01-.89,1.97,.51,1.13,1.79,1.54,3.01,.92,.49-.25,.94-.59,1.41-.87,.14-.09,.31-.13,.53-.23Zm-4.21-2.52c.48-.28,.97-.48,1.37-.8,.93-.75,1.57-1.7,1.59-2.94,0-.26-.13-.64-.33-.76-.18-.11-.56,0-.79,.13-.28,.16-.57,.39-.73,.66-.5,.82-.97,1.67-1.4,2.53-.18,.36-.23,.8,.29,1.17Z"/>
      <path class="cls-2" d="M161.77,140.03c.37-.29,.57-.56,.81-.6,.91-.17,1.83-.31,2.75-.38,.48-.04,.62,.33,.51,.77-.3,1.11-.59,2.22-.9,3.32-.65,2.32-1.32,4.64-1.98,6.96-.29,1-.6,1.99-.87,2.99-.06,.22,0,.47,.01,.7,.27-.04,.59,0,.81-.13,.24-.14,.36-.47,.57-.67,.15-.14,.36-.2,.76-.39-.15,.42-.18,.68-.31,.85-.76,.95-1.47,1.96-2.86,2.1-1.45,.14-2.23-.64-1.91-2.07,.29-1.3,.66-2.59,1.03-3.88,.75-2.6,1.47-5.21,2.31-7.77,.27-.8,.09-1.25-.74-1.79Z"/>
      <path class="cls-2" d="M150.39,155.28c.41-1.59,.75-2.95,1.11-4.31,.34-1.29,.69-2.59,1.04-3.88,.16-.56,.11-1.02-.41-1.38-.14-.09-.21-.28-.4-.55,.4-.13,.69-.24,1-.32,.64-.17,1.29-.35,1.94-.47,.27-.05,.72-.08,.81,.06,.15,.22,.13,.61,.06,.9-.13,.52-.45,1-.23,1.82,.32-.39,.52-.62,.7-.87,.39-.54,.72-1.13,1.18-1.61,.61-.63,1.16-.52,1.63,.22,.5,.79,.19,2.5-.57,3.07-.36,.28-.65,.16-1-.09-.77-.59-.87-.61-1.34,.24-.68,1.22-1.29,2.49-1.84,3.78-.35,.81-.53,1.7-.77,2.55-.16,.57-.49,.92-1.1,.91-.54,0-1.09-.06-1.81-.1Z"/>
      <path class="cls-2" d="M12.84,145.18c.29-.11,.54-.24,.81-.32,.72-.19,1.44-.36,2.16-.53,.74-.18,1.1,.17,.88,.89-.07,.25-.22,.47-.31,.71-.13,.34-.24,.69,.09,1.16,.19-.26,.33-.44,.47-.63,.49-.64,.94-1.34,1.5-1.91,.44-.45,.86-.35,1.26,.08,.94,1,.22,2.87-.5,3.41-.31,.23-.6,.07-.89-.18-.65-.55-.83-.5-1.3,.15-.97,1.34-1.52,2.87-2.03,4.42-.24,.74-.41,1.5-.7,2.22-.1,.27-.41,.58-.67,.63-.64,.12-1.32,.23-2.03-.19,.09-.53,.14-1.08,.28-1.6,.49-1.83,1-3.65,1.5-5.47q.44-1.6-.51-2.85Z"/>
      <path class="cls-2" d="M47.89,152.93c-.76,1.09-1.43,2.27-2.93,2.6-1.24,.27-2.44-.8-1.92-2.26,.67-1.89,1.19-3.83,1.8-5.74,.28-.88,.09-1.59-.62-2.11,.11-.57,.52-.54,.88-.61,.76-.15,1.53-.29,2.28-.46,.76-.17,1.11,.12,.91,.86-.43,1.58-.89,3.15-1.37,4.71-.26,.85-.56,1.69-.83,2.54-.08,.25-.14,.52-.12,.77,.02,.19,.15,.4,.3,.52,.06,.05,.33-.09,.45-.2,.31-.29,.59-.61,.88-.91,.1,.1,.2,.2,.29,.3Z"/>
      <path class="cls-2" d="M47.62,139c.78,0,1.61,.86,1.61,1.67,0,.71-.93,1.73-1.63,1.76-.74,.04-1.56-.84-1.57-1.7-.02-1.06,.6-1.74,1.59-1.74Z"/>
    </g>
  </g>
</svg>